<svg width="226" height="20" viewBox="0 0 226 20" fill="none" xmlns="http://www.w3.org/2000/svg">
<path d="M7.08217 1.9566C7.08217 2.61329 7.61354 3.14466 8.27023 3.14466C8.92691 3.14466 9.45828 2.61329 9.45828 1.9566C9.45828 1.29992 8.93694 0.77858 8.29028 0.768555H8.24516C7.5985 0.77858 7.08217 1.30994 7.08217 1.9566Z" fill="black"/>
<path d="M10.9922 19.0706C11.3531 19.0104 11.5938 18.6695 11.5336 18.3086C11.3782 17.3963 10.0648 16.6143 7.17742 15.2357C9.26277 13.1002 11.7592 10.2379 11.5336 8.93955C11.3632 7.95702 9.84427 7.11987 6.44053 5.51575C6.71623 5.23002 6.99695 4.94428 7.27266 4.66857C7.52832 4.41292 7.52832 3.99183 7.27266 3.73618C7.01701 3.48052 6.59592 3.48052 6.34027 3.73618C6.33024 3.7462 5.86404 4.21742 5.18731 4.92924C3.56313 4.15726 1.55798 3.1597 1.31736 2.68348C1.2522 2.37268 0.981502 2.15712 0.670704 2.15712C0.635613 2.15712 0.59551 2.15713 0.56042 2.16715C0.199493 2.22731 -0.041125 2.56818 0.0190295 2.9291C0.169416 3.82641 1.4477 4.59839 4.23987 5.93683C3.88396 6.32282 3.50799 6.74391 3.13704 7.17C0.19448 10.5487 -0.0912538 11.6565 0.0190295 12.2982C0.184454 13.2606 1.64821 14.0828 4.90658 15.6267C4.75119 15.7771 3.57817 16.8699 3.41776 17.0203C3.15208 17.271 3.14205 17.687 3.3927 17.9527C3.64334 18.2184 4.06442 18.2284 4.32509 17.9778C4.57072 17.7422 5.86906 16.5341 6.18487 16.2233C7.83912 17.0053 9.98964 18.058 10.2353 18.5543C10.3004 18.865 10.5711 19.0806 10.8819 19.0806C10.917 19.0806 10.9571 19.0806 10.9922 19.0706ZM5.90415 14.6342C4.23486 13.8522 1.62315 12.619 1.31736 12.0626C1.3324 11.3658 3.25234 8.93955 5.48307 6.52835C5.48307 6.52835 5.48808 6.52835 5.49309 6.52835C7.15235 7.30535 9.91445 8.59867 10.2252 9.17014C10.2102 9.76668 8.53591 11.9623 5.90415 14.6292V14.6342Z" fill="black"/>
<path d="M18.396 3.82169H27.5044V5.75166H20.5566V8.94485H26.7174V10.8748H20.5566V14.1733H27.5946V16.1032H18.401V3.82169H18.396Z" fill="black"/>
<path d="M31.9508 6.83946V8.25809C32.5473 7.40089 33.4096 6.64395 34.8483 6.64395C36.9386 6.64395 38.1467 8.04756 38.1467 10.1881V16.1032H36.0213V10.8397C36.0213 9.40103 35.3044 8.57391 34.0362 8.57391C32.7679 8.57391 31.9458 9.43612 31.9458 10.8748V16.1032H29.8203V6.83946H31.9508Z" fill="black"/>
<path d="M40.0516 11.4563C40.0516 8.38342 42.142 6.64896 44.3527 6.64896C45.8816 6.64896 46.844 7.4059 47.5108 8.28315V3.30037H49.6362V16.1083H47.5108V14.5643C46.824 15.5268 45.8615 16.3038 44.3527 16.3038C42.1771 16.3038 40.0516 14.5643 40.0516 11.4964V11.4563ZM47.5458 11.4914V11.4563C47.5458 9.66671 46.2826 8.48868 44.859 8.48868C43.4353 8.48868 42.1921 9.61157 42.1921 11.4563V11.4914C42.1921 13.281 43.4203 14.459 44.859 14.459C46.2976 14.459 47.5458 13.266 47.5458 11.4914Z" fill="black"/>
<path d="M51.6664 11.5265V11.4914C51.6664 8.83959 53.7718 6.64896 56.6141 6.64896C59.4564 6.64896 61.5468 8.80951 61.5468 11.4563V11.4914C61.5468 14.1232 59.4414 16.3188 56.579 16.3188C53.7167 16.3188 51.6664 14.1633 51.6664 11.5265ZM59.4213 11.5265V11.4914C59.4213 9.86222 58.2433 8.50874 56.579 8.50874C54.9148 8.50874 53.7869 9.84216 53.7869 11.4563V11.4914C53.7869 13.1056 54.9649 14.459 56.6141 14.459C58.2634 14.459 59.4213 13.1256 59.4213 11.5265Z" fill="black"/>
<path d="M63.1058 11.5265V11.4914C63.1058 8.85964 65.141 6.64896 67.9332 6.64896C69.6727 6.64896 70.7605 7.30064 71.6377 8.24807L70.3043 9.67173C69.6576 8.98496 68.9709 8.51375 67.9182 8.51375C66.3742 8.51375 65.2313 9.84718 65.2313 11.4613V11.4964C65.2313 13.1456 66.3692 14.464 68.0034 14.464C69.006 14.464 69.7378 14.0079 70.4045 13.3211L71.6878 14.5843C70.7755 15.602 69.7027 16.3188 67.8981 16.3188C65.141 16.3188 63.1058 14.1633 63.1058 11.5265Z" fill="black"/>
<path d="M73.4223 6.83945H75.5477V8.92981C76.1292 7.54125 77.197 6.59382 78.8312 6.664V8.90976H78.7058C76.8461 8.90976 75.5477 10.1229 75.5477 12.5792V16.1083H73.4223V6.83945Z" fill="black"/>
<path d="M80.7912 3.40061H83.0721V5.4208H80.7912V3.40061ZM80.8764 6.83946H83.0019V16.1032H80.8764V6.83946Z" fill="black"/>
<path d="M87.6689 6.83946V8.25809C88.2654 7.40089 89.1276 6.64395 90.5663 6.64395C92.6567 6.64395 93.8648 8.04756 93.8648 10.1881V16.1032H91.7393V10.8397C91.7393 9.40103 91.0225 8.57391 89.7542 8.57391C88.486 8.57391 87.6639 9.43612 87.6639 10.8748V16.1032H85.5384V6.83946H87.6689Z" fill="black"/>
<path d="M95.7997 11.5265V11.4914C95.7997 8.83959 97.9051 6.64896 100.747 6.64896C103.59 6.64896 105.68 8.80951 105.68 11.4563V11.4914C105.68 14.1232 103.575 16.3188 100.712 16.3188C97.85 16.3188 95.7997 14.1633 95.7997 11.5265ZM103.555 11.5265V11.4914C103.555 9.86222 102.382 8.50874 100.712 8.50874C99.0431 8.50874 97.9202 9.84216 97.9202 11.4563V11.4914C97.9202 13.1056 99.0932 14.459 100.742 14.459C102.392 14.459 103.55 13.1256 103.55 11.5265H103.555Z" fill="black"/>
<path d="M107.52 3.29535H109.645V16.1032H107.52V3.29535Z" fill="black"/>
<path d="M111.47 11.5265V11.4914C111.47 8.83959 113.575 6.64896 116.418 6.64896C119.26 6.64896 121.35 8.80951 121.35 11.4563V11.4914C121.35 14.1232 119.245 16.3188 116.383 16.3188C113.52 16.3188 111.47 14.1633 111.47 11.5265ZM119.225 11.5265V11.4914C119.225 9.86222 118.047 8.50874 116.383 8.50874C114.718 8.50874 113.59 9.84216 113.59 11.4563V11.4914C113.59 13.1056 114.763 14.459 116.418 14.459C118.072 14.459 119.225 13.1256 119.225 11.5265Z" fill="black"/>
<path d="M123.335 17.8427L124.127 16.2436C125.13 16.8602 126.163 17.2261 127.426 17.2261C129.321 17.2261 130.358 16.2436 130.358 14.3838V13.662C129.586 14.6645 128.619 15.3663 127.095 15.3663C124.919 15.3663 122.884 13.7522 122.884 11.0302V10.9951C122.884 8.25809 124.94 6.64395 127.095 6.64395C128.659 6.64395 129.622 7.3658 130.343 8.223V6.83946H132.469V14.2084C132.469 15.7724 132.068 16.9304 131.291 17.7024C130.449 18.5445 129.15 18.9506 127.481 18.9506C125.957 18.9506 124.534 18.5646 123.34 17.8427H123.335ZM130.374 11.0152V10.9801C130.374 9.47121 129.125 8.43355 127.652 8.43355C126.178 8.43355 125.02 9.45115 125.02 10.9801V11.0152C125.02 12.5241 126.198 13.5617 127.652 13.5617C129.105 13.5617 130.374 12.5241 130.374 11.0152Z" fill="black"/>
<path d="M141.342 6.83946H143.552L139.868 16.3689C139.131 18.2638 138.304 18.9656 136.815 18.9656C135.938 18.9656 135.271 18.7551 134.619 18.4042L135.336 16.8251C135.722 17.0356 136.143 17.176 136.584 17.176C137.181 17.176 137.552 16.9103 137.903 16.1233L134.043 6.83946H136.324L138.935 13.7171L141.342 6.83946Z" fill="black"/>
<path d="M153.292 4.79419H154.48L159.599 16.1032H158.235L156.922 13.1356H150.811L149.478 16.1032H148.179L153.297 4.79419H153.292ZM156.42 11.9777L153.869 6.26798L151.302 11.9777H156.42Z" fill="black"/>
<path d="M161.408 4.8744H165.308C168.837 4.8744 171.273 7.29563 171.273 10.4588V10.4888C171.273 13.6469 168.837 16.1032 165.308 16.1032H161.408V4.8744ZM162.676 6.04741V14.9352H165.308C168.145 14.9352 169.96 13.0103 169.96 10.5239V10.4938C169.96 8.00744 168.145 6.05243 165.308 6.05243H162.676V6.04741Z" fill="black"/>
<path d="M171.79 4.8744H173.203L177.199 14.5442L181.209 4.8744H182.573L177.745 16.1835H176.622L171.795 4.8744H171.79Z" fill="black"/>
<path d="M184.492 4.8744H185.761V16.1032H184.492V4.8744Z" fill="black"/>
<path d="M187.911 14.4691L188.698 13.5367C189.871 14.5944 190.994 15.1257 192.548 15.1257C194.102 15.1257 195.05 14.3237 195.05 13.2158V13.1857C195.05 12.1431 194.488 11.5516 192.132 11.0503C189.55 10.4888 188.362 9.65669 188.362 7.81195V7.78186C188.362 6.01733 189.916 4.719 192.052 4.719C193.686 4.719 194.859 5.1852 195.997 6.09754L195.26 7.07506C194.217 6.22287 193.175 5.85692 192.022 5.85692C190.563 5.85692 189.631 6.65898 189.631 7.67158V7.70167C189.631 8.75939 190.207 9.35591 192.678 9.88226C195.18 10.4287 196.338 11.341 196.338 13.0604V13.0905C196.338 15.0155 194.734 16.2687 192.503 16.2687C190.723 16.2687 189.265 15.6771 187.916 14.4741L187.911 14.4691Z" fill="black"/>
<path d="M197.777 10.5239V10.4938C197.777 7.40089 200.103 4.68893 203.521 4.68893C206.94 4.68893 209.231 7.3658 209.231 10.4638V10.4938C209.231 13.5918 206.905 16.2988 203.486 16.2988C200.067 16.2988 197.777 13.6219 197.777 10.5239ZM207.913 10.5239V10.4938C207.913 7.94228 206.053 5.85692 203.486 5.85692C200.92 5.85692 199.09 7.91221 199.09 10.4588V10.4888C199.09 13.0404 200.95 15.1257 203.516 15.1257C206.083 15.1257 207.913 13.0704 207.913 10.5239Z" fill="black"/>
<path d="M211.106 4.8744H215.933C217.312 4.8744 218.42 5.29047 219.126 5.99728C219.673 6.54368 219.994 7.33071 219.994 8.21298V8.24306C219.994 10.1028 218.71 11.1956 216.946 11.5165L220.395 16.1032H218.841L215.582 11.742H212.374V16.1032H211.106V4.8744ZM215.823 10.5991C217.507 10.5991 218.71 9.73188 218.71 8.28817V8.25809C218.71 6.87955 217.653 6.04239 215.838 6.04239H212.374V10.5991H215.823Z" fill="black"/>
<path d="M222.38 6.51353V6.50351C222.38 5.63127 223.087 4.89438 223.979 4.89438C224.871 4.89438 225.578 5.62125 225.578 6.49349V6.50351C225.578 7.37575 224.871 8.11264 223.979 8.11264C223.087 8.11264 222.38 7.38577 222.38 6.51353ZM225.392 6.50351V6.49349C225.392 5.71148 224.786 5.06983 223.979 5.06983C223.172 5.06983 222.565 5.7215 222.565 6.50351V6.51353C222.565 7.29554 223.172 7.9372 223.979 7.9372C224.786 7.9372 225.392 7.28552 225.392 6.50351ZM223.352 5.65633H224.089C224.45 5.65633 224.716 5.83178 224.716 6.17266C224.716 6.43834 224.56 6.60376 224.34 6.66893L224.771 7.28552H224.395L224.009 6.72408H223.668V7.28552H223.357V5.66135L223.352 5.65633ZM224.059 6.46341C224.27 6.46341 224.39 6.35313 224.39 6.19773C224.39 6.02228 224.27 5.93205 224.059 5.93205H223.663V6.46341H224.059Z" fill="black"/>
</svg>
