<svg width="238" height="22" viewBox="0 0 238 22" fill="none" xmlns="http://www.w3.org/2000/svg">
<path d="M34.2565 17.5451V4.59027H42.665V6.55702H36.5938V10.0772H42.2232V12.044H36.5938V15.5784H42.7149V17.5451H34.2565Z" fill="black"/>
<path d="M47.019 4.59027L49.8693 9.33612H49.9691L52.8266 4.59027H55.4988L51.5154 11.0677L55.5629 17.5451H52.8479L49.9691 12.8349H49.8693L46.9904 17.5451H44.2897L48.3729 11.0677L44.3396 4.59027H47.0261H47.019Z" fill="black"/>
<path d="M57.3372 17.5451V4.59027H62.1829C63.1734 4.59027 64.0142 4.77554 64.684 5.14609C65.361 5.51664 65.8741 6.0297 66.2161 6.67103C66.5653 7.31949 66.7363 8.05346 66.7363 8.87293C66.7363 9.69241 66.5582 10.4406 66.209 11.0891C65.8598 11.7375 65.3468 12.2435 64.6627 12.614C63.9786 12.9846 63.1377 13.1698 62.1401 13.1698H58.9263V11.2387H61.8266C62.4109 11.2387 62.8812 11.139 63.2517 10.9323C63.6223 10.7328 63.9002 10.4549 64.0783 10.0986C64.2565 9.74229 64.3491 9.33612 64.3491 8.88006C64.3491 8.424 64.2565 8.01783 64.0783 7.66866C63.9002 7.31949 63.6223 7.0487 63.2517 6.84918C62.8812 6.64965 62.4038 6.55702 61.8123 6.55702H59.6674V17.5523H57.323L57.3372 17.5451Z" fill="black"/>
<path d="M68.7743 17.5451V4.59027H77.1828V6.55702H71.1116V10.0772H76.741V12.044H71.1116V15.5784H77.2327V17.5451H68.7743Z" fill="black"/>
<path d="M79.5772 17.5451V4.59027H84.4228C85.4133 4.59027 86.2542 4.76129 86.924 5.11046C87.601 5.45963 88.114 5.94419 88.4561 6.56414C88.7981 7.1841 88.9763 7.91094 88.9763 8.73754C88.9763 9.56415 88.7981 10.291 88.4489 10.8967C88.0998 11.5024 87.5796 11.9727 86.9026 12.3076C86.2257 12.6425 85.3848 12.8064 84.3872 12.8064H80.9311V10.8611H84.0665C84.6508 10.8611 85.1211 10.7827 85.4917 10.6188C85.8622 10.4549 86.133 10.2197 86.3183 9.90619C86.4964 9.59265 86.5891 9.20785 86.5891 8.74467C86.5891 8.28148 86.4964 7.88956 86.3183 7.56177C86.1401 7.23398 85.8622 6.98457 85.4917 6.81355C85.1211 6.64253 84.6437 6.55702 84.0594 6.55702H81.9145V17.5523H79.5701L79.5772 17.5451ZM86.2542 11.6734L89.4537 17.5451H86.8385L83.696 11.6734H86.2542Z" fill="black"/>
<path d="M90.5795 6.55702V4.59027H100.898V6.55702H96.9002V17.5451H94.5772V6.55702H90.5795Z" fill="black"/>
<path d="M107.29 17.5451V4.59027H112.135C113.126 4.59027 113.967 4.77554 114.637 5.14609C115.314 5.51664 115.827 6.0297 116.169 6.67103C116.518 7.31949 116.689 8.05346 116.689 8.87293C116.689 9.69241 116.511 10.4406 116.162 11.0891C115.812 11.7375 115.299 12.2435 114.615 12.614C113.931 12.9846 113.09 13.1698 112.093 13.1698H108.879V11.2387H111.779C112.363 11.2387 112.834 11.139 113.204 10.9323C113.575 10.7328 113.846 10.4549 114.031 10.0986C114.209 9.74229 114.302 9.33612 114.302 8.88006C114.302 8.424 114.216 8.01783 114.031 7.66866C113.853 7.31949 113.575 7.0487 113.204 6.84918C112.834 6.64965 112.356 6.55702 111.765 6.55702H109.62V17.5523H107.276L107.29 17.5451Z" fill="black"/>
<path d="M118.734 17.5451V4.59027H127.143V6.55702H121.078V10.0772H126.708V12.044H121.078V15.5784H127.2V17.5451H118.741H118.734Z" fill="black"/>
<path d="M129.537 17.5451V4.59027H134.382C135.373 4.59027 136.214 4.76129 136.884 5.11046C137.561 5.45963 138.074 5.94419 138.416 6.56414C138.758 7.1841 138.936 7.91094 138.936 8.73754C138.936 9.56415 138.758 10.291 138.409 10.8967C138.059 11.5024 137.539 11.9727 136.862 12.3076C136.185 12.6425 135.344 12.8064 134.347 12.8064H130.891V10.8611H134.026C134.61 10.8611 135.081 10.7827 135.451 10.6188C135.822 10.4549 136.093 10.2197 136.278 9.90619C136.456 9.59265 136.549 9.20785 136.549 8.74467C136.549 8.28148 136.456 7.88956 136.278 7.56177C136.1 7.23398 135.822 6.98457 135.451 6.81355C135.081 6.64253 134.603 6.55702 134.019 6.55702H131.874V17.5523H129.53L129.537 17.5451ZM136.214 11.6734L139.413 17.5451H136.798L133.656 11.6734H136.214Z" fill="black"/>
<path d="M148.128 8.15322C148.071 7.5974 147.822 7.16985 147.387 6.86343C146.952 6.55702 146.39 6.40025 145.691 6.40025C145.2 6.40025 144.786 6.47151 144.437 6.62115C144.088 6.7708 143.817 6.97032 143.639 7.21973C143.454 7.46913 143.361 7.7613 143.354 8.08909C143.354 8.35987 143.418 8.59502 143.539 8.79455C143.66 8.99407 143.831 9.15797 144.045 9.30049C144.259 9.43588 144.494 9.54989 144.758 9.64253C145.021 9.73517 145.285 9.81355 145.549 9.87769L146.76 10.1841C147.252 10.2981 147.722 10.4549 148.171 10.6473C148.62 10.8397 149.033 11.0891 149.39 11.3812C149.753 11.6805 150.038 12.0368 150.245 12.4501C150.451 12.8706 150.558 13.3551 150.558 13.9181C150.558 14.6805 150.366 15.3432 149.974 15.9204C149.589 16.4976 149.026 16.9466 148.299 17.2672C147.565 17.5879 146.689 17.7518 145.648 17.7518C144.608 17.7518 143.767 17.595 143.033 17.2815C142.292 16.968 141.715 16.5119 141.302 15.9133C140.888 15.3147 140.66 14.5879 140.632 13.7257H142.933C142.969 14.1746 143.104 14.5523 143.347 14.8516C143.589 15.1508 143.91 15.3718 144.302 15.5214C144.694 15.671 145.135 15.7423 145.627 15.7423C146.119 15.7423 146.582 15.6639 146.967 15.5143C147.352 15.3575 147.651 15.1437 147.872 14.8658C148.093 14.5879 148.2 14.2672 148.207 13.8967C148.207 13.5618 148.107 13.2767 147.907 13.0558C147.708 12.8349 147.444 12.6497 147.095 12.5C146.746 12.3504 146.34 12.215 145.876 12.101L144.409 11.7233C143.347 11.4525 142.506 11.0321 141.886 10.4763C141.266 9.92044 140.96 9.17222 140.96 8.24586C140.96 7.48338 141.166 6.81355 141.58 6.24348C141.993 5.67341 142.563 5.22448 143.276 4.90381C143.988 4.58315 144.8 4.42638 145.705 4.42638C146.61 4.42638 147.43 4.58315 148.121 4.90381C148.812 5.22448 149.361 5.66628 149.753 6.22923C150.152 6.79217 150.352 7.44063 150.366 8.16747H148.114L148.128 8.15322Z" fill="black"/>
<path d="M235.52 8.1532C235.463 7.59738 235.214 7.16983 234.779 6.86342C234.344 6.557 233.782 6.40023 233.083 6.40023C232.592 6.40023 232.178 6.47149 231.829 6.62114C231.48 6.77078 231.209 6.97031 231.031 7.21971C230.846 7.46912 230.753 7.76128 230.746 8.08907C230.746 8.35985 230.81 8.59501 230.931 8.79453C231.052 8.99406 231.223 9.15796 231.437 9.30047C231.651 9.43586 231.886 9.54988 232.15 9.64252C232.413 9.73515 232.677 9.81354 232.941 9.87767L234.152 10.1841C234.644 10.2981 235.114 10.4549 235.563 10.6473C236.012 10.8397 236.425 11.0891 236.782 11.3812C237.145 11.6805 237.43 12.0368 237.637 12.4501C237.843 12.8705 237.95 13.3551 237.95 13.9181C237.95 14.6805 237.758 15.3432 237.366 15.9204C236.981 16.4976 236.418 16.9466 235.691 17.2672C234.957 17.5879 234.081 17.7518 233.04 17.7518C232 17.7518 231.159 17.595 230.425 17.2815C229.684 16.9679 229.107 16.5119 228.694 15.9133C228.28 15.3147 228.052 14.5879 228.024 13.7257H230.325C230.361 14.1746 230.496 14.5523 230.739 14.8515C230.981 15.1508 231.302 15.3717 231.694 15.5214C232.086 15.671 232.527 15.7423 233.019 15.7423C233.511 15.7423 233.974 15.6639 234.359 15.5143C234.744 15.3575 235.043 15.1437 235.264 14.8658C235.485 14.5879 235.592 14.2672 235.599 13.8967C235.599 13.5618 235.499 13.2767 235.299 13.0558C235.1 12.8349 234.836 12.6496 234.487 12.5C234.138 12.3504 233.732 12.215 233.268 12.1009L231.801 11.7233C230.739 11.4525 229.898 11.0321 229.278 10.4762C228.658 9.92043 228.352 9.17221 228.352 8.24584C228.352 7.48337 228.558 6.81354 228.972 6.24346C229.385 5.67339 229.955 5.22446 230.668 4.9038C231.38 4.58313 232.192 4.42636 233.097 4.42636C234.002 4.42636 234.822 4.58313 235.513 4.9038C236.204 5.22446 236.753 5.66627 237.145 6.22921C237.544 6.79216 237.744 7.44061 237.758 8.16746H235.506L235.52 8.1532Z" fill="black"/>
<path d="M152.646 17.5451V4.59027H157.492C158.482 4.59027 159.323 4.77554 159.993 5.14609C160.67 5.51664 161.183 6.0297 161.525 6.67103C161.874 7.31949 162.045 8.05346 162.045 8.87293C162.045 9.69241 161.867 10.4406 161.518 11.0891C161.169 11.7375 160.656 12.2435 159.972 12.614C159.287 12.9846 158.447 13.1698 157.449 13.1698H154.235V11.2387H157.135C157.72 11.2387 158.19 11.139 158.561 10.9323C158.931 10.7328 159.202 10.4549 159.387 10.0986C159.565 9.74229 159.658 9.33612 159.658 8.88006C159.658 8.424 159.572 8.01783 159.387 7.66866C159.209 7.31949 158.931 7.0487 158.561 6.84918C158.19 6.64965 157.713 6.55702 157.121 6.55702H154.976V17.5523H152.632L152.646 17.5451Z" fill="black"/>
<path d="M164.083 17.5451V4.59027H172.492V6.55702H166.428V10.0772H172.057V12.044H166.428V15.5784H172.549V17.5451H164.09H164.083Z" fill="black"/>
<path d="M185.953 8.96557H183.594C183.53 8.58077 183.401 8.2316 183.223 7.93232C183.045 7.63303 182.817 7.3765 182.546 7.16272C182.276 6.94894 181.969 6.79217 181.627 6.68529C181.285 6.5784 180.915 6.52139 180.515 6.52139C179.81 6.52139 179.19 6.69954 178.648 7.04871C178.107 7.39787 177.679 7.91807 177.373 8.59503C177.067 9.27199 176.91 10.0986 176.91 11.0748C176.91 12.0511 177.067 12.8991 177.373 13.576C177.679 14.253 178.107 14.766 178.648 15.1081C179.19 15.4501 179.81 15.6212 180.508 15.6212C180.893 15.6212 181.257 15.5713 181.599 15.4644C181.941 15.3575 182.24 15.2079 182.518 15.0083C182.789 14.8088 183.017 14.5594 183.209 14.2601C183.401 13.9608 183.523 13.6259 183.594 13.2482L185.953 13.2625C185.867 13.8753 185.675 14.4596 185.382 14.9941C185.09 15.5356 184.706 16.006 184.235 16.4193C183.765 16.8326 183.209 17.1532 182.582 17.3813C181.955 17.6093 181.249 17.7233 180.48 17.7233C179.347 17.7233 178.328 17.4596 177.437 16.9323C176.546 16.405 175.841 15.6425 175.328 14.6449C174.815 13.6473 174.558 12.4573 174.558 11.0677C174.558 9.67816 174.815 8.47388 175.335 7.48339C175.855 6.49289 176.561 5.73042 177.451 5.2031C178.342 4.67578 179.354 4.41212 180.48 4.41212C181.2 4.41212 181.869 4.51189 182.489 4.71854C183.109 4.92519 183.658 5.21735 184.143 5.60927C184.627 6.0012 185.026 6.47863 185.34 7.04158C185.653 7.60453 185.86 8.24586 185.953 8.96557Z" fill="black"/>
<path d="M187.542 6.55702V4.59027H197.86V6.55702H193.862V17.5451H191.539V6.55702H187.542Z" fill="black"/>
<path d="M202.178 4.59027V17.5451H199.834V4.59027H202.178Z" fill="black"/>
<path d="M206.454 4.59027L209.817 14.7874H209.953L213.309 4.59027H215.888L211.328 17.5451H208.435L203.881 4.59027H206.454Z" fill="black"/>
<path d="M217.591 17.5451V4.59027H226V6.55702H219.936V10.0772H225.565V12.044H219.936V15.5784H226.057V17.5451H217.599H217.591Z" fill="black"/>
<path d="M7.39895 8.08195C8.5391 8.08195 9.47259 7.15558 9.47259 6.00831C9.47259 4.86104 8.54622 3.93468 7.39895 3.93468C6.25168 3.93468 5.32532 4.86104 5.32532 6.00831C5.32532 7.15558 6.25168 8.08195 7.39895 8.08195ZM7.39895 4.54038C8.2113 4.54038 8.86689 5.19596 8.86689 6.00831C8.86689 6.82066 8.2113 7.47625 7.39895 7.47625C6.5866 7.47625 5.93102 6.82066 5.93102 6.00831C5.93102 5.19596 6.5866 4.54038 7.39895 4.54038Z" fill="black" stroke="black" stroke-width="0.249406" stroke-miterlimit="10"/>
<path d="M3.80039 12.3646C3.96428 12.3646 4.09967 12.2292 4.09967 12.0653V10.9751C4.09967 9.95606 4.88352 9.12233 5.84552 9.12233H8.95953C9.92153 9.12233 10.7054 9.95606 10.7054 10.9751V12.0653C10.7054 12.2292 10.8408 12.3646 11.0047 12.3646C11.1686 12.3646 11.304 12.2292 11.304 12.0653V10.9751C11.304 9.62115 10.2493 8.52376 8.95953 8.52376H5.84552C4.54861 8.52376 3.5011 9.62115 3.5011 10.9751V12.0653C3.5011 12.2292 3.63649 12.3646 3.80039 12.3646Z" fill="black" stroke="black" stroke-width="0.249406" stroke-miterlimit="10"/>
<path d="M18.6793 8.08195C19.8194 8.08195 20.7529 7.15558 20.7529 6.00831C20.7529 4.86104 19.8266 3.93468 18.6793 3.93468C17.532 3.93468 16.6057 4.86104 16.6057 6.00831C16.6057 7.15558 17.532 8.08195 18.6793 8.08195ZM18.6793 4.54038C19.4916 4.54038 20.1472 5.19596 20.1472 6.00831C20.1472 6.82066 19.4916 7.47625 18.6793 7.47625C17.8669 7.47625 17.2114 6.82066 17.2114 6.00831C17.2114 5.19596 17.8669 4.54038 18.6793 4.54038Z" fill="black" stroke="black" stroke-width="0.249406" stroke-miterlimit="10"/>
<path d="M15.0807 12.3646C15.2446 12.3646 15.38 12.2292 15.38 12.0653V10.9751C15.38 9.95606 16.1639 9.12233 17.1259 9.12233H20.2399C21.2019 9.12233 21.9857 9.95606 21.9857 10.9751V12.0653C21.9857 12.2292 22.1211 12.3646 22.285 12.3646C22.4489 12.3646 22.5843 12.2292 22.5843 12.0653V10.9751C22.5843 9.62115 21.5297 8.52376 20.2399 8.52376H17.1259C15.8289 8.52376 14.7814 9.62115 14.7814 10.9751V12.0653C14.7814 12.2292 14.9168 12.3646 15.0807 12.3646Z" fill="black" stroke="black" stroke-width="0.249406" stroke-miterlimit="10"/>
<path d="M24.0166 0.956055H2.06881C1.32059 0.956055 0.707764 1.56888 0.707764 2.3171V16.0558C0.707764 16.804 1.31346 17.4097 2.06168 17.4097H10.1852C9.7719 18.5926 8.77428 19.6402 7.20658 20.5166C7.20658 20.5166 7.19233 20.5238 7.1852 20.5309C7.1852 20.5309 7.1852 20.5309 7.17808 20.538C7.17808 20.538 7.17095 20.538 7.16382 20.5451C7.16382 20.5451 7.1567 20.5451 7.14957 20.5523C7.14957 20.5523 7.14957 20.5523 7.14245 20.5594C7.14245 20.5594 7.13532 20.5665 7.12819 20.5736C7.12819 20.5736 7.12819 20.5736 7.12107 20.5808C7.12107 20.5808 7.12107 20.5879 7.11394 20.595C7.11394 20.595 7.11394 20.6021 7.10682 20.6093C7.10682 20.6093 7.10682 20.6164 7.10682 20.6235C7.10682 20.6235 7.10682 20.6306 7.09969 20.6378C7.09969 20.6378 7.09969 20.6378 7.09969 20.6449C7.09969 20.6449 7.09969 20.6592 7.09257 20.6592C7.09257 20.6592 7.09257 20.6592 7.09257 20.6663C7.09257 20.6663 7.09257 20.6805 7.09257 20.6877C7.09257 20.6877 7.09257 20.6877 7.09257 20.6948C7.09257 20.6948 7.09257 20.709 7.09257 20.7162C7.09257 20.7162 7.09257 20.7233 7.09257 20.7304V20.7447V20.7589C7.09257 20.7589 7.09257 20.766 7.09257 20.7732C7.09257 20.7732 7.09257 20.7874 7.09257 20.7945V20.8017V20.8159C7.09257 20.8159 7.09257 20.823 7.09257 20.8302C7.09257 20.8302 7.09257 20.8302 7.09257 20.8373C7.09257 20.8373 7.09257 20.8516 7.09257 20.8587C7.09257 20.8658 7.09257 20.8729 7.09969 20.8801C7.09969 20.8872 7.10682 20.8943 7.11394 20.9014C7.11394 20.9086 7.12819 20.9228 7.13532 20.9299C7.13532 20.9299 7.13532 20.9299 7.13532 20.9371C7.13532 20.9442 7.14957 20.9513 7.1567 20.9656C7.16382 20.9727 7.17095 20.9798 7.17808 20.9869C7.17808 20.9869 7.17808 20.9869 7.1852 20.9869C7.19233 20.9869 7.19945 20.9941 7.20658 21.0012C7.20658 21.0012 7.20658 21.0012 7.21371 21.0012C7.22083 21.0012 7.23508 21.0154 7.24933 21.0154C7.25646 21.0154 7.27071 21.0226 7.27784 21.0226C7.27784 21.0226 7.27784 21.0226 7.28496 21.0226C7.29209 21.0226 7.30634 21.0226 7.31347 21.0226C7.31347 21.0226 7.31347 21.0226 7.32059 21.0226C7.33485 21.0226 7.34197 21.0226 7.35622 21.0226L18.7363 21.044C18.9002 21.044 19.0356 20.9086 19.0356 20.7447C19.0356 20.7447 19.0356 20.7447 19.0356 20.7375C19.0356 20.6306 18.9857 20.5238 18.8788 20.4668C17.3111 19.5903 16.3063 18.5428 15.893 17.3599H24.0166C24.7648 17.3599 25.3705 16.7542 25.3705 16.0059V2.3171C25.3705 1.56888 24.7648 0.963181 24.0166 0.963181V0.956055ZM2.06881 1.56176H24.0166C24.4299 1.56176 24.7719 1.89667 24.7719 2.3171V14.139H1.31346V2.3171C1.31346 1.9038 1.64838 1.56176 2.06881 1.56176ZM15.3016 17.5166C15.665 18.6354 16.4702 19.633 17.7173 20.4953L8.40373 20.481C9.62938 19.6259 10.4346 18.6354 10.7909 17.5166C10.8052 17.481 10.8052 17.4454 10.8052 17.4097H15.2873C15.2873 17.4454 15.2873 17.481 15.3016 17.5166ZM24.0237 16.804H2.06881C1.65551 16.804 1.31346 16.4691 1.31346 16.0487V14.7304H24.7719V16.0487C24.7719 16.462 24.437 16.804 24.0166 16.804H24.0237Z" fill="black" stroke="black" stroke-width="0.249406" stroke-miterlimit="10"/>
<path d="M13.0427 12.5071C13.2066 12.5071 13.342 12.3717 13.342 12.2078V3.35036C13.342 3.18646 13.2066 3.05107 13.0427 3.05107C12.8788 3.05107 12.7434 3.18646 12.7434 3.35036V12.2078C12.7434 12.3717 12.8788 12.5071 13.0427 12.5071Z" fill="black" stroke="black" stroke-width="0.249406" stroke-miterlimit="10"/>
</svg>
