<svg width="123" height="59" viewBox="0 0 123 59" fill="none" xmlns="http://www.w3.org/2000/svg">
<g clip-path="url(#clip0_6123_11174)">
<path d="M98.7714 45.5793C98.7714 46.4841 99.0132 47.2407 99.489 47.8257C100.16 48.6369 101.267 49.0659 102.695 49.0659C103.639 49.0659 104.809 48.9099 105.932 48.4887C102.96 51.5229 100.16 55.0719 97.9992 58.3869H103.67C109.652 49.9161 118.88 41.7027 122.437 38.1693L118.958 35.4627C114.535 39.8307 108.646 44.7759 104.902 44.7759C104.294 44.7759 104.029 44.5185 104.013 44.1285C103.966 42.9351 105.542 40.8525 107.094 38.9649L103.444 36.1257C98.3658 40.9851 91.845 44.9397 88.1478 44.9397C86.4864 44.9397 85.4256 44.2689 84.8718 43.2003C97.2972 35.2443 102.453 27.6471 102.453 23.2011C102.453 21.2355 101.111 19.9875 98.8494 19.9875C95.1678 19.9875 90.9168 22.6161 87.1182 26.6487C83.3352 30.6813 80.3556 36.3363 79.8096 41.6013C75.1218 44.0583 71.1828 44.9475 69.1626 44.9475C66.5808 44.9475 65.0598 44.2611 64.3968 42.8415C77.1732 34.4721 85.9638 23.5443 85.9638 18.4509C85.9638 16.3761 84.5988 15.1905 82.2276 15.1905C73.8114 15.1905 59.943 30.7437 59.4906 40.9071V40.9383C55.38 43.4733 51.8856 44.9397 49.6158 44.9397C48.8748 44.9397 48.009 44.7369 48.009 43.7151C48.009 42.3657 49.8342 39.9633 51.8154 37.6935L51.9792 37.4985L48.477 34.7607L48.321 34.9167C43.836 39.5109 38.0952 44.9319 32.175 44.9319C29.796 44.9319 27.7914 44.2299 25.662 43.0755C29.1798 40.2285 32.6976 36.2739 36.972 30.3147C47.97 28.1541 55.8402 21.6489 60.2004 17.2653C62.9694 14.4885 67.2204 9.16111 67.2204 4.20811C67.2204 1.80571 65.676 0.00390625 62.7198 0.00390625C52.728 0.00390625 41.1216 16.2591 33.54 26.7189C32.0892 26.9217 30.6072 27.0621 29.1408 27.0621C20.553 27.0621 16.5126 23.4507 16.5126 19.8471C16.5126 14.3715 24.3906 8.76331 33.8598 7.66351C33.2748 6.34531 32.7132 5.23771 32.0736 3.80251C22.4952 4.79311 11.544 11.5245 11.544 20.1981C11.544 22.3899 12.2694 24.4335 13.806 26.1729C16.6452 29.3865 21.8478 31.2273 28.0878 31.2273C28.7742 31.2273 29.4762 31.2039 30.1938 31.1649C26.9412 35.3067 24.18 38.2395 21.5514 40.3299C18.7824 38.3253 14.3676 36.3909 9.78118 36.3909C4.39138 36.3909 0.366577 39.0039 0.366577 42.8727C0.366577 47.6541 5.74858 49.0425 9.07918 49.0425C13.494 49.0425 17.667 48.0207 21.4578 45.9147C23.8368 47.4747 26.9022 49.0425 31.473 49.0425C36.0438 49.0425 40.2948 46.8195 43.2822 44.8539C43.329 45.9459 43.6878 46.8897 44.3664 47.5917C45.2946 48.5433 46.7298 49.0425 48.5394 49.0425C51.6906 49.0425 55.6452 47.8257 60.294 45.2049C61.5654 47.6853 64.3344 49.0425 67.7664 49.0425C71.4558 49.0425 75.8706 47.9115 80.4648 45.6339C81.5724 47.8023 83.9592 49.0425 86.8062 49.0425C90.4566 49.0425 94.185 47.7711 98.8182 44.9397C98.787 45.1659 98.7792 45.3609 98.7792 45.5559L98.7714 45.5793ZM51.987 11.4387C56.2302 7.18771 59.3814 4.98031 61.035 4.98031C61.464 4.98031 61.8072 5.26891 61.8072 5.74471C61.8072 7.83511 58.9368 12.0549 55.3488 15.6117C51.4644 19.4571 46.2618 23.1309 40.7784 24.8937C44.8344 19.2699 48.6798 14.7459 51.9792 11.4387H51.987ZM9.43018 45.0333C7.08238 45.0333 4.97638 44.3625 4.97638 42.8181C4.97638 41.4765 6.70798 40.4079 9.41458 40.4079C12.1212 40.4079 15.327 41.6325 17.3472 43.0365C14.8668 44.2611 12.2772 45.0333 9.43018 45.0333ZM80.496 19.5351C80.7846 19.5351 80.9094 19.7379 80.925 19.9641C80.925 20.0733 80.9016 20.1825 80.8782 20.2917C80.0202 23.7471 71.9784 32.1711 64.3344 37.9509C66.8694 29.8779 78.0858 19.5273 80.5038 19.5273L80.496 19.5351ZM84.4662 38.9571V38.9337C86.424 32.4051 94.5204 24.3399 97.0398 24.3399C97.2894 24.3399 97.422 24.5349 97.422 24.8079C97.422 25.0029 97.3518 25.2525 97.3206 25.3383C96.4938 28.0059 92.2896 32.8263 86.7984 37.2255C86.0808 37.7871 85.3164 38.3799 84.6144 38.8791L84.4662 38.9571Z" fill="#E1251B"/>
<path d="M51.6827 30.962C51.6827 32.6156 53.0243 33.9572 54.6779 33.9572C56.3315 33.9572 57.6653 32.6156 57.6653 30.962C57.6653 29.3084 56.3315 27.9668 54.6779 27.9668C53.0243 27.9668 51.6827 29.3084 51.6827 30.962Z" fill="#E1251B"/>
</g>
<defs>
<clipPath id="clip0_6123_11174">
<rect width="122.46" height="58.5" fill="white" transform="translate(0 0.0117188)"/>
</clipPath>
</defs>
</svg>
