<svg width="32" height="32" viewBox="0 0 32 32" fill="none" xmlns="http://www.w3.org/2000/svg">
<g clip-path="url(#clip0_6113_25215)">
<path d="M15.9998 31.9997C24.8363 31.9997 31.9997 24.8363 31.9997 15.9998C31.9997 7.16337 24.8363 0 15.9998 0C7.16337 0 0 7.16337 0 15.9998C0 24.8363 7.16337 31.9997 15.9998 31.9997Z" fill="url(#paint0_radial_6113_25215)"/>
<mask id="mask0_6113_25215" style="mask-type:luminance" maskUnits="userSpaceOnUse" x="6" y="6" width="20" height="20">
<path d="M25.4527 6.54901H6.54626V25.4506H25.4527V6.54901Z" fill="white" stroke="white" stroke-width="0.125"/>
</mask>
<g mask="url(#mask0_6113_25215)">
<path d="M18.7589 19.3424L17.9152 18.4915C17.1001 19.2187 16.1211 19.7378 15.0619 20.0045C14.0026 20.2712 12.8945 20.2776 11.8322 20.023C10.1682 19.6631 8.70825 18.6725 7.75894 17.2591C7.02951 16.2031 6.61232 14.963 6.55518 13.6808C6.49804 12.3986 6.80326 11.1263 7.43587 10.0095C8.06847 8.89282 9.00288 7.9769 10.132 7.36673C11.2612 6.75656 12.5393 6.47682 13.8201 6.55956C15.1009 6.64231 16.3325 7.08419 17.3737 7.83458C18.415 8.58497 19.2237 9.61351 19.7074 10.8024C20.1911 11.9912 20.33 13.2922 20.1084 14.5564C19.8867 15.8206 19.3134 16.9967 18.4542 17.9501L19.2947 18.7966C19.3618 18.725 19.4236 18.6528 19.4924 18.5875C19.5559 18.5229 19.6319 18.4717 19.7157 18.437C19.7994 18.4023 19.8893 18.3849 19.98 18.3857C20.0707 18.3866 20.1603 18.4057 20.2434 18.4419C20.3265 18.4781 20.4015 18.5307 20.4639 18.5965C22.0586 20.1904 23.6526 21.7849 25.2457 23.3801C25.3113 23.4428 25.3635 23.5181 25.3993 23.6014C25.435 23.6848 25.4536 23.7745 25.4538 23.8652C25.454 23.9559 25.4359 24.0457 25.4006 24.1292C25.3653 24.2128 25.3134 24.2883 25.2482 24.3513C24.9513 24.6533 24.6519 24.9527 24.3499 25.2496C24.2871 25.3135 24.2121 25.3642 24.1294 25.3987C24.0467 25.4333 23.958 25.4509 23.8684 25.4508C23.7788 25.4506 23.6901 25.4325 23.6076 25.3976C23.525 25.3627 23.4503 25.3117 23.3877 25.2475C21.7877 23.6513 20.1898 22.0544 18.5941 20.4566C18.5294 20.3945 18.4777 20.3202 18.4422 20.2378C18.4066 20.1555 18.3879 20.0669 18.387 19.9773C18.3862 19.8876 18.4033 19.7987 18.4373 19.7157C18.4713 19.6327 18.5216 19.5574 18.5851 19.4941C18.6401 19.4407 18.6977 19.39 18.7579 19.3424M19.4599 13.3679C19.4586 12.1694 19.1036 10.9979 18.4395 10.0002C17.7753 9.00253 16.8315 8.22303 15.7263 7.75938C14.6211 7.29573 13.4036 7.16855 12.2264 7.39378C11.0492 7.619 9.96469 8.18662 9.10868 9.02551C8.25267 9.8644 7.66326 10.9372 7.4143 12.1096C7.16534 13.282 7.2679 14.5018 7.70913 15.6162C8.15036 16.7305 8.91064 17.6899 9.8947 18.3741C10.8788 19.0583 12.0429 19.4368 13.2411 19.4623C14.052 19.4794 14.8581 19.3344 15.6122 19.0358C16.3663 18.7371 17.0531 18.2908 17.6324 17.7232C18.2116 17.1555 18.6717 16.4778 18.9855 15.7299C19.2993 14.982 19.4606 14.179 19.4599 13.3679ZM19.9892 19.1842L19.1945 19.975L23.8666 24.6412L24.6612 23.8604L19.9902 19.1839" fill="white"/>
<path d="M18.7589 19.3424L17.9152 18.4915C17.1001 19.2187 16.1211 19.7378 15.0619 20.0045C14.0026 20.2712 12.8945 20.2776 11.8322 20.023C10.1682 19.6631 8.70825 18.6725 7.75894 17.2591C7.02951 16.2031 6.61232 14.963 6.55518 13.6808C6.49804 12.3986 6.80326 11.1263 7.43587 10.0095C8.06847 8.89282 9.00288 7.9769 10.132 7.36673C11.2612 6.75656 12.5393 6.47682 13.8201 6.55956C15.1009 6.64231 16.3325 7.08419 17.3737 7.83458C18.415 8.58497 19.2237 9.61351 19.7074 10.8024C20.1911 11.9912 20.33 13.2922 20.1084 14.5564C19.8867 15.8206 19.3134 16.9967 18.4542 17.9501L19.2947 18.7966C19.3618 18.725 19.4236 18.6528 19.4924 18.5875C19.5559 18.5229 19.6319 18.4717 19.7157 18.437C19.7994 18.4023 19.8893 18.3849 19.98 18.3857C20.0707 18.3866 20.1603 18.4057 20.2434 18.4419C20.3265 18.4781 20.4015 18.5307 20.4639 18.5965C22.0586 20.1904 23.6526 21.7849 25.2457 23.3801C25.3113 23.4428 25.3635 23.5181 25.3993 23.6014C25.435 23.6848 25.4536 23.7745 25.4538 23.8652C25.454 23.9559 25.4359 24.0457 25.4006 24.1292C25.3653 24.2128 25.3134 24.2883 25.2482 24.3513C24.9513 24.6533 24.6519 24.9527 24.3499 25.2496C24.2871 25.3135 24.2121 25.3642 24.1294 25.3987C24.0467 25.4333 23.958 25.4509 23.8684 25.4508C23.7788 25.4506 23.6901 25.4325 23.6076 25.3976C23.525 25.3627 23.4503 25.3117 23.3877 25.2475C21.7877 23.6513 20.1898 22.0544 18.5941 20.4566C18.5294 20.3945 18.4777 20.3202 18.4422 20.2378C18.4066 20.1555 18.3879 20.0669 18.387 19.9773C18.3862 19.8876 18.4033 19.7987 18.4373 19.7157C18.4713 19.6327 18.5216 19.5574 18.5851 19.4941C18.6401 19.4407 18.6977 19.39 18.7579 19.3424M19.9892 19.1842L19.1945 19.975L23.8666 24.6412L24.6612 23.8604L19.9902 19.1839M19.4599 13.3679C19.4586 12.1694 19.1036 10.9979 18.4395 10.0002C17.7753 9.00253 16.8315 8.22303 15.7263 7.75938C14.6211 7.29573 13.4036 7.16855 12.2264 7.39378C11.0492 7.619 9.96469 8.18662 9.10868 9.02551C8.25267 9.8644 7.66326 10.9372 7.4143 12.1096C7.16534 13.282 7.2679 14.5018 7.70913 15.6162C8.15036 16.7305 8.91064 17.6899 9.8947 18.3741C10.8788 19.0583 12.0429 19.4368 13.2411 19.4623C14.052 19.4794 14.8581 19.3344 15.6122 19.0358C16.3663 18.7371 17.0531 18.2908 17.6324 17.7232C18.2116 17.1555 18.6717 16.4778 18.9855 15.7299C19.2993 14.982 19.4606 14.179 19.4599 13.3679Z" stroke="white" stroke-width="0.125"/>
<path d="M11.8333 13.7417C11.5658 13.3957 11.4426 12.9595 11.4895 12.5246C11.4877 12.202 11.5143 11.8799 11.569 11.562C11.6812 11.1483 11.9321 10.7857 12.2795 10.5346C12.627 10.2836 13.0501 10.1593 13.4781 10.1826C13.9061 10.206 14.3132 10.3755 14.6313 10.6628C14.9494 10.9501 15.1593 11.3379 15.226 11.7614C15.2998 12.2254 15.2912 12.6989 15.2004 13.1599C15.1383 13.3583 15.058 13.5505 14.9606 13.7341C15.1681 13.8652 15.3676 14.0085 15.558 14.1632C15.7784 14.3572 15.9548 14.5961 16.0752 14.8639C16.1955 15.1317 16.2572 15.4222 16.2559 15.7158C16.2614 16.0976 16.2576 16.4797 16.2559 16.8615C16.2609 16.9129 16.255 16.9649 16.2387 17.0139C16.2224 17.063 16.196 17.1081 16.1612 17.1463C16.1264 17.1845 16.0839 17.215 16.0366 17.2358C15.9892 17.2566 15.9381 17.2672 15.8864 17.267C15.8347 17.2668 15.7836 17.2557 15.7364 17.2345C15.6893 17.2133 15.6471 17.1825 15.6126 17.144C15.5781 17.1055 15.5521 17.0601 15.5362 17.0109C15.5203 16.9618 15.5149 16.9098 15.5203 16.8584C15.5203 16.4973 15.5203 16.1359 15.5203 15.7749C15.5226 15.5847 15.4869 15.396 15.4153 15.2198C15.3437 15.0435 15.2377 14.8834 15.1033 14.7487C14.969 14.6141 14.8092 14.5076 14.6331 14.4355C14.4571 14.3634 14.2685 14.3272 14.0783 14.329C13.6008 14.329 13.1233 14.329 12.6459 14.329C12.2723 14.3306 11.9144 14.4797 11.6502 14.7438C11.386 15.0079 11.2369 15.3657 11.2353 15.7393C11.2353 16.1048 11.2353 16.47 11.2353 16.8352C11.2466 16.9268 11.2242 17.0193 11.1724 17.0956C11.1205 17.1719 11.0426 17.2267 10.9533 17.2498C10.9034 17.265 10.8506 17.2689 10.799 17.2612C10.7473 17.2535 10.698 17.2344 10.6546 17.2053C10.6112 17.1762 10.5748 17.1378 10.5481 17.0929C10.5214 17.048 10.505 16.9978 10.5001 16.9458C10.4761 16.4115 10.4909 15.8762 10.5443 15.3441C10.5957 15.0008 10.7345 14.6765 10.9474 14.4024C11.1603 14.1282 11.4402 13.9135 11.76 13.7787C11.7822 13.768 11.8043 13.7566 11.8347 13.7414M12.2199 12.394H12.2389C12.2389 12.5432 12.2313 12.6928 12.2389 12.8431C12.2536 13.0392 12.3405 13.2229 12.4828 13.3586C12.6251 13.4944 12.8127 13.5725 13.0093 13.578C13.2456 13.5814 13.482 13.5807 13.7183 13.578C13.9088 13.581 14.0938 13.5138 14.238 13.3892C14.3822 13.2645 14.4755 13.0912 14.5001 12.9022C14.5249 12.6132 14.5307 12.323 14.5174 12.0333C14.5094 11.7484 14.3954 11.4766 14.1977 11.2713C14 11.0659 13.7329 10.9417 13.4484 10.9229C13.177 10.9049 12.9082 10.9851 12.6911 11.1489C12.4739 11.3127 12.3228 11.5491 12.2655 11.8149C12.2374 12.0071 12.2217 12.2008 12.2185 12.395" fill="white"/>
<path d="M11.8333 13.7417C11.5658 13.3957 11.4426 12.9595 11.4895 12.5246C11.4877 12.202 11.5143 11.8799 11.569 11.562C11.6812 11.1483 11.9321 10.7857 12.2795 10.5346C12.627 10.2836 13.0501 10.1593 13.4781 10.1826C13.9061 10.206 14.3132 10.3755 14.6313 10.6628C14.9494 10.9501 15.1593 11.3379 15.226 11.7614C15.2998 12.2254 15.2912 12.6989 15.2004 13.1599C15.1383 13.3583 15.058 13.5505 14.9606 13.7341C15.1681 13.8652 15.3676 14.0085 15.558 14.1632C15.7784 14.3572 15.9548 14.5961 16.0752 14.8639C16.1955 15.1317 16.2572 15.4222 16.2559 15.7158C16.2614 16.0976 16.2576 16.4797 16.2559 16.8615C16.2609 16.9129 16.255 16.9649 16.2387 17.0139C16.2224 17.063 16.196 17.1081 16.1612 17.1463C16.1264 17.1845 16.0839 17.215 16.0366 17.2358C15.9892 17.2566 15.9381 17.2672 15.8864 17.267C15.8347 17.2668 15.7836 17.2557 15.7364 17.2345C15.6893 17.2133 15.6471 17.1825 15.6126 17.144C15.5781 17.1055 15.5521 17.0601 15.5362 17.0109C15.5203 16.9618 15.5149 16.9098 15.5203 16.8584C15.5203 16.4973 15.5203 16.1359 15.5203 15.7749C15.5226 15.5847 15.4869 15.396 15.4153 15.2198C15.3437 15.0435 15.2377 14.8834 15.1033 14.7487C14.969 14.6141 14.8092 14.5076 14.6331 14.4355C14.4571 14.3634 14.2685 14.3272 14.0783 14.329C13.6008 14.329 13.1233 14.329 12.6459 14.329C12.2723 14.3306 11.9144 14.4797 11.6502 14.7438C11.386 15.0079 11.2369 15.3657 11.2353 15.7393C11.2353 16.1048 11.2353 16.47 11.2353 16.8352C11.2466 16.9268 11.2242 17.0193 11.1724 17.0956C11.1205 17.1719 11.0426 17.2267 10.9533 17.2498C10.9034 17.265 10.8506 17.2689 10.799 17.2612C10.7473 17.2535 10.698 17.2344 10.6546 17.2053C10.6112 17.1762 10.5748 17.1378 10.5481 17.0929C10.5214 17.048 10.505 16.9978 10.5001 16.9458C10.4761 16.4115 10.4909 15.8762 10.5443 15.3441C10.5957 15.0008 10.7345 14.6765 10.9474 14.4024C11.1603 14.1282 11.4402 13.9135 11.76 13.7787C11.7822 13.768 11.8043 13.7566 11.8347 13.7414M12.2199 12.394H12.2389C12.2389 12.5432 12.2313 12.6928 12.2389 12.8431C12.2536 13.0392 12.3405 13.2229 12.4828 13.3586C12.6251 13.4944 12.8127 13.5725 13.0093 13.578C13.2456 13.5814 13.482 13.5807 13.7183 13.578C13.9088 13.581 14.0938 13.5138 14.238 13.3892C14.3822 13.2645 14.4755 13.0912 14.5001 12.9022C14.5249 12.6132 14.5307 12.323 14.5174 12.0333C14.5094 11.7484 14.3954 11.4766 14.1977 11.2713C14 11.0659 13.7329 10.9417 13.4484 10.9229C13.177 10.9049 12.9082 10.9851 12.6911 11.1489C12.4739 11.3127 12.3228 11.5491 12.2655 11.8149C12.2374 12.0071 12.2217 12.2008 12.2185 12.395" stroke="white" stroke-width="0.125"/>
<path d="M12.7861 8.70109C12.7864 8.79502 12.7535 8.88604 12.6934 8.95818C12.6333 9.03033 12.5496 9.07899 12.4572 9.09563C12.1262 9.18565 11.8014 9.29725 11.485 9.42972C10.7878 9.75192 10.1929 10.2599 9.76551 10.898C9.74443 10.9288 9.7244 10.9602 9.70263 10.9906C9.67665 11.0321 9.64262 11.068 9.60256 11.0961C9.56251 11.1243 9.51722 11.1441 9.46938 11.1545C9.42154 11.1648 9.37211 11.1655 9.32399 11.1565C9.27588 11.1475 9.23006 11.1289 9.18924 11.1019C9.14712 11.0765 9.11075 11.0427 9.08242 11.0025C9.05409 10.9623 9.03442 10.9167 9.02468 10.8685C9.01493 10.8203 9.01531 10.7706 9.0258 10.7226C9.03628 10.6746 9.05665 10.6293 9.08559 10.5895C9.27192 10.3205 9.4761 10.0642 9.69676 9.82254C10.3827 9.09827 11.2696 8.5956 12.2433 8.3791C12.5249 8.3138 12.7156 8.40708 12.774 8.64028C12.7799 8.66412 12.7826 8.689 12.7844 8.69971" fill="white"/>
<path d="M12.7861 8.70109C12.7864 8.79502 12.7535 8.88604 12.6934 8.95818C12.6333 9.03033 12.5496 9.07899 12.4572 9.09563C12.1262 9.18565 11.8014 9.29725 11.485 9.42972C10.7878 9.75192 10.1929 10.2599 9.76551 10.898C9.74443 10.9288 9.7244 10.9602 9.70263 10.9906C9.67665 11.0321 9.64262 11.068 9.60256 11.0961C9.56251 11.1243 9.51722 11.1441 9.46938 11.1545C9.42154 11.1648 9.37211 11.1655 9.32399 11.1565C9.27588 11.1475 9.23006 11.1289 9.18924 11.1019C9.14712 11.0765 9.11075 11.0427 9.08242 11.0025C9.05409 10.9623 9.03442 10.9167 9.02468 10.8685C9.01493 10.8203 9.01531 10.7706 9.0258 10.7226C9.03628 10.6746 9.05665 10.6293 9.08559 10.5895C9.27192 10.3205 9.4761 10.0642 9.69676 9.82254C10.3827 9.09827 11.2696 8.5956 12.2433 8.3791C12.5249 8.3138 12.7156 8.40708 12.774 8.64028C12.7799 8.66412 12.7826 8.689 12.7844 8.69971" stroke="white" stroke-width="0.125"/>
<path d="M8.24227 12.9288C8.3314 12.5467 8.41121 12.1622 8.51347 11.7835C8.5263 11.7371 8.54847 11.6938 8.57864 11.6562C8.60881 11.6187 8.64634 11.5877 8.68892 11.5652C8.73149 11.5427 8.77823 11.5291 8.82624 11.5253C8.87426 11.5215 8.92254 11.5275 8.96813 11.5431C9.05991 11.5725 9.13689 11.636 9.18323 11.7206C9.22957 11.8051 9.24174 11.9041 9.21723 11.9974C9.14502 12.3328 9.07489 12.6683 9.00994 13.0052C9.00078 13.1026 8.95328 13.1924 8.87789 13.2548C8.80251 13.3173 8.70541 13.3472 8.60796 13.338C8.51052 13.3289 8.4207 13.2814 8.35828 13.206C8.29585 13.1306 8.26593 13.0335 8.27509 12.9361L8.24054 12.9285" fill="white"/>
<path d="M8.24227 12.9288C8.3314 12.5467 8.41121 12.1622 8.51347 11.7835C8.5263 11.7371 8.54847 11.6938 8.57864 11.6562C8.60881 11.6187 8.64634 11.5877 8.68892 11.5652C8.73149 11.5427 8.77823 11.5291 8.82624 11.5253C8.87426 11.5215 8.92254 11.5275 8.96813 11.5431C9.05991 11.5725 9.13689 11.636 9.18323 11.7206C9.22957 11.8051 9.24174 11.9041 9.21723 11.9974C9.14502 12.3328 9.07489 12.6683 9.00994 13.0052C9.00078 13.1026 8.95328 13.1924 8.87789 13.2548C8.80251 13.3173 8.70541 13.3472 8.60796 13.338C8.51052 13.3289 8.4207 13.2814 8.35828 13.206C8.29585 13.1306 8.26593 13.0335 8.27509 12.9361L8.24054 12.9285" stroke="white" stroke-width="0.125"/>
</g>
</g>
<defs>
<radialGradient id="paint0_radial_6113_25215" cx="0" cy="0" r="1" gradientUnits="userSpaceOnUse" gradientTransform="translate(15.9998 15.9998) scale(15.9998)">
<stop offset="0.009" stop-color="#FE1509"/>
<stop offset="0.992" stop-color="#C10202"/>
</radialGradient>
<clipPath id="clip0_6113_25215">
<rect width="32" height="32" fill="white"/>
</clipPath>
</defs>
</svg>
