<svg width="94" height="94" viewBox="0 0 94 94" fill="none" xmlns="http://www.w3.org/2000/svg">
<g clip-path="url(#clip0_6113_25269)">
<path d="M46.647 93.048C72.3415 93.048 93.171 72.2185 93.171 46.524C93.171 20.8295 72.3415 0 46.647 0C20.9525 0 0.122986 20.8295 0.122986 46.524C0.122986 72.2185 20.9525 93.048 46.647 93.048Z" fill="url(#paint0_radial_6113_25269)"/>
<path d="M40.38 58.419C25.119 58.419 19.415 51.432 18.635 50.366L18.302 49.892C17.7256 49.0062 17.4192 47.9719 17.42 46.915V35.556C17.3994 35.2956 17.3927 35.0342 17.4 34.773C17.514 30.705 21.155 26.316 29.032 25.682C36.653 25.069 43.605 27.664 47.632 32.625C49.0572 34.3385 50.0663 36.3587 50.5803 38.5273C51.0944 40.6959 51.0994 42.9541 50.595 45.125C60.3656 43.2877 69.7838 39.9153 78.5 35.133C78.7251 35.0077 78.9791 34.9433 79.2367 34.9462C79.4944 34.9491 79.7468 35.0192 79.969 35.1496C80.1913 35.28 80.3756 35.4662 80.5038 35.6897C80.632 35.9132 80.6996 36.1663 80.7 36.424L80.729 45.988C80.7299 46.2513 80.6607 46.5101 80.5283 46.7377C80.3959 46.9654 80.2053 47.1536 79.976 47.283C73.9909 50.5446 67.6634 53.1344 61.109 55.005C54.4002 57.137 47.4182 58.287 40.38 58.419ZM19.388 40.337V46.919C19.3859 47.5846 19.5758 48.2367 19.935 48.797L20.235 49.222C21.204 50.546 30.664 62.032 60.542 53.122C66.8627 51.3165 72.9693 48.8316 78.755 45.711L78.729 37.253C74.571 39.494 63.107 45.159 50.109 47.202L49.39 47.311C44.5639 48.0662 39.6558 48.141 34.809 47.533C26.933 46.456 21.92 43.606 19.388 40.34V40.337ZM19.388 35.488C19.759 39.594 24.625 44.149 35.075 45.582C39.5295 46.1427 44.0394 46.0983 48.482 45.45C49.066 43.4715 49.1542 41.3796 48.7388 39.3589C48.3234 37.3382 47.4171 35.4507 46.1 33.863C42.485 29.406 36.163 27.081 29.189 27.642C23.599 28.092 19.72 30.817 19.389 34.474L19.388 35.488Z" fill="white"/>
<path d="M49.672 45.698C49.4447 45.6981 49.2245 45.6193 49.049 45.475C33.559 32.78 21.377 41.116 21.256 41.201C21.1504 41.2756 21.0312 41.3286 20.9051 41.3572C20.779 41.3857 20.6485 41.3891 20.5211 41.3672C20.3937 41.3452 20.2719 41.2984 20.1625 41.2294C20.0532 41.1604 19.9586 41.0706 19.884 40.965C19.8094 40.8594 19.7563 40.7402 19.7278 40.6141C19.6993 40.488 19.6959 40.3575 19.7178 40.2301C19.7397 40.1027 19.7865 39.9809 19.8555 39.8716C19.9245 39.7622 20.0144 39.6676 20.12 39.593C20.253 39.499 33.661 30.318 50.297 43.952C50.4543 44.0805 50.568 44.2546 50.6224 44.4503C50.6769 44.6461 50.6694 44.8539 50.601 45.0452C50.5326 45.2365 50.4067 45.4019 50.2406 45.5188C50.0744 45.6357 49.8761 45.6983 49.673 45.698H49.672Z" fill="white"/>
<path d="M23.74 54.484C23.6107 54.484 23.4826 54.4585 23.3632 54.409C23.2437 54.3595 23.1352 54.2869 23.0438 54.1954C22.9524 54.104 22.88 53.9954 22.8306 53.8759C22.7812 53.7564 22.7559 53.6283 22.756 53.499V47.317C22.756 47.056 22.8597 46.8058 23.0442 46.6212C23.2287 46.4367 23.479 46.333 23.74 46.333C24.001 46.333 24.2512 46.4367 24.4358 46.6212C24.6203 46.8058 24.724 47.056 24.724 47.317V53.499C24.7241 53.6283 24.6988 53.7564 24.6494 53.8759C24.6 53.9954 24.5275 54.104 24.4361 54.1954C24.3447 54.2869 24.2362 54.3595 24.1168 54.409C23.9973 54.4585 23.8693 54.484 23.74 54.484Z" fill="white"/>
<path d="M36.038 58.247C35.9086 58.247 35.7805 58.2215 35.661 58.1719C35.5414 58.1223 35.4329 58.0497 35.3415 57.9581C35.2501 57.8665 35.1776 57.7578 35.1283 57.6382C35.079 57.5186 35.0537 57.3904 35.054 57.261V51.045C35.054 50.784 35.1577 50.5337 35.3422 50.3492C35.5267 50.1647 35.777 50.061 36.038 50.061C36.299 50.061 36.5492 50.1647 36.7338 50.3492C36.9183 50.5337 37.022 50.784 37.022 51.045V57.261C37.0223 57.3904 36.997 57.5186 36.9477 57.6382C36.8983 57.7578 36.8259 57.8665 36.7345 57.9581C36.6431 58.0497 36.5345 58.1223 36.415 58.1719C36.2955 58.2215 36.1674 58.247 36.038 58.247Z" fill="white"/>
<path d="M48.84 57.776C48.579 57.776 48.3287 57.6723 48.1442 57.4878C47.9597 57.3033 47.856 57.053 47.856 56.792V50.713C47.856 50.452 47.9597 50.2017 48.1442 50.0172C48.3287 49.8327 48.579 49.729 48.84 49.729C49.101 49.729 49.3513 49.8327 49.5358 50.0172C49.7203 50.2017 49.824 50.452 49.824 50.713V56.792C49.824 57.053 49.7203 57.3033 49.5358 57.4878C49.3513 57.6723 49.101 57.776 48.84 57.776Z" fill="white"/>
<path d="M61.106 54.966C60.8452 54.966 60.5951 54.8625 60.4106 54.6782C60.226 54.4938 60.1223 54.2438 60.122 53.983V47.75C60.122 47.489 60.2257 47.2388 60.4102 47.0542C60.5947 46.8697 60.845 46.766 61.106 46.766C61.367 46.766 61.6173 46.8697 61.8018 47.0542C61.9863 47.2388 62.09 47.489 62.09 47.75V53.983C62.0897 54.2438 61.9859 54.4938 61.8014 54.6782C61.6169 54.8625 61.3668 54.966 61.106 54.966Z" fill="white"/>
<path d="M71.891 51.118C71.63 51.118 71.3797 51.0144 71.1952 50.8298C71.0107 50.6453 70.907 50.395 70.907 50.134V44.151C70.907 43.89 71.0107 43.6398 71.1952 43.4552C71.3797 43.2707 71.63 43.167 71.891 43.167C72.152 43.167 72.4023 43.2707 72.5868 43.4552C72.7713 43.6398 72.875 43.89 72.875 44.151V50.134C72.875 50.395 72.7713 50.6453 72.5868 50.8298C72.4023 51.0144 72.152 51.118 71.891 51.118Z" fill="white"/>
<path d="M35.636 74.794C35.4166 74.7938 35.2001 74.7435 35.003 74.647C34.76 74.53 34.5551 74.3466 34.4121 74.1179C34.2691 73.8892 34.1938 73.6247 34.195 73.355V64.114C34.1943 63.8946 34.2442 63.678 34.3408 63.481C34.4374 63.284 34.5781 63.1119 34.752 62.978C37.1431 61.1316 39.3621 59.0725 41.382 56.826C41.4638 56.7222 41.5657 56.6359 41.6816 56.5723C41.7975 56.5087 41.9251 56.4691 42.0566 56.4559C42.1882 56.4427 42.321 56.4561 42.4472 56.4954C42.5735 56.5346 42.6905 56.599 42.7914 56.6845C42.8922 56.77 42.9748 56.8749 43.0341 56.9931C43.0935 57.1112 43.1285 57.2401 43.1369 57.372C43.1454 57.5039 43.1272 57.6362 43.0834 57.761C43.0396 57.8857 42.9711 58.0003 42.882 58.098C40.8377 60.3905 38.588 62.4913 36.161 64.374V72.256C46.441 63.943 50.37 56.035 50.41 55.956C50.524 55.7212 50.7267 55.5412 50.9734 55.4558C51.2201 55.3704 51.4906 55.3865 51.7255 55.5005C51.9603 55.6146 52.1403 55.8172 52.2257 56.0639C52.3111 56.3106 52.295 56.5812 52.181 56.816C52.008 57.172 47.825 65.629 36.521 74.488C36.2685 74.6861 35.9569 74.7938 35.636 74.794Z" fill="white"/>
<path d="M43.984 67.297C43.723 67.297 43.4727 67.1934 43.2882 67.0088C43.1037 66.8243 43 66.574 43 66.313V61.113C43.0011 60.8527 43.1052 60.6035 43.2896 60.4198C43.474 60.2361 43.7237 60.133 43.984 60.133C44.245 60.133 44.4953 60.2367 44.6798 60.4212C44.8643 60.6058 44.968 60.8561 44.968 61.117V66.317C44.9669 66.5773 44.8628 66.8266 44.6784 67.0102C44.494 67.1939 44.2443 67.297 43.984 67.297Z" fill="white"/>
</g>
<defs>
<radialGradient id="paint0_radial_6113_25269" cx="0" cy="0" r="1" gradientUnits="userSpaceOnUse" gradientTransform="translate(46.647 46.524) scale(46.524)">
<stop offset="0.009" stop-color="#FE1509"/>
<stop offset="0.992" stop-color="#C10202"/>
</radialGradient>
<clipPath id="clip0_6113_25269">
<rect width="93.048" height="93.048" fill="white" transform="translate(0.122986)"/>
</clipPath>
</defs>
</svg>
