<svg width="94" height="94" viewBox="0 0 94 94" fill="none" xmlns="http://www.w3.org/2000/svg">
<g clip-path="url(#clip0_6113_25270)">
<path d="M46.695 93.048C72.3895 93.048 93.219 72.2185 93.219 46.524C93.219 20.8295 72.3895 0 46.695 0C21.0005 0 0.171021 20.8295 0.171021 46.524C0.171021 72.2185 21.0005 93.048 46.695 93.048Z" fill="url(#paint0_radial_6113_25270)"/>
<path d="M46.722 62.674C43.3004 62.674 39.9556 61.6594 37.1106 59.7584C34.2657 57.8575 32.0483 55.1556 30.7389 51.9944C29.4295 48.8332 29.0869 45.3548 29.7544 41.9989C30.422 38.643 32.0696 35.5605 34.489 33.141C36.9085 30.7216 39.9911 29.0739 43.347 28.4064C46.7028 27.7389 50.1813 28.0815 53.3424 29.3909C56.5036 30.7003 59.2055 32.9176 61.1064 35.7626C63.0074 38.6076 64.022 41.9524 64.022 45.374C64.0157 49.9603 62.1909 54.357 58.9479 57.6C55.7049 60.843 51.3083 62.6676 46.722 62.674ZM46.722 29.999C43.6819 29.999 40.7101 30.9005 38.1823 32.5895C35.6546 34.2785 33.6844 36.6791 32.521 39.4878C31.3576 42.2965 31.0532 45.3871 31.6463 48.3688C32.2394 51.3505 33.7034 54.0892 35.8531 56.2389C38.0027 58.3886 40.7416 59.8526 43.7232 60.4457C46.7049 61.0388 49.7955 60.7343 52.6042 59.5709C55.4129 58.4075 57.8135 56.4374 59.5025 53.9097C61.1915 51.3819 62.093 48.4101 62.093 45.37C62.0885 41.2948 60.4676 37.3876 57.586 34.506C54.7043 31.6244 50.7973 30.0035 46.722 29.999Z" fill="white"/>
<path d="M47.128 50.4829H46.319C44.826 50.4811 43.3946 49.8872 42.339 48.8313C41.2833 47.7755 40.6896 46.344 40.688 44.851V42.71C40.688 41.1091 41.324 39.5739 42.4559 38.4419C43.5879 37.31 45.1232 36.674 46.724 36.674C48.3248 36.674 49.8602 37.31 50.9921 38.4419C52.1241 39.5739 52.76 41.1091 52.76 42.71V44.851C52.7584 46.3442 52.1646 47.7758 51.1087 48.8317C50.0528 49.8876 48.6212 50.4814 47.128 50.4829ZM46.728 38.606C45.6414 38.6084 44.5999 39.0411 43.8315 39.8095C43.0631 40.5779 42.6304 41.6193 42.628 42.706V44.847C42.628 45.8283 43.0178 46.7694 43.7117 47.4633C44.4056 48.1572 45.3467 48.547 46.328 48.547H47.137C48.1183 48.547 49.0594 48.1572 49.7533 47.4633C50.4472 46.7694 50.837 45.8283 50.837 44.847V42.706C50.8347 41.6168 50.3998 40.5733 49.6282 39.8046C48.8565 39.0359 47.8111 38.6051 46.722 38.607L46.728 38.606Z" fill="white"/>
<path d="M55.147 60.3311C54.8908 60.3311 54.6451 60.2293 54.464 60.0481C54.2828 59.8669 54.181 59.6212 54.181 59.365V55.543C54.1794 54.2016 53.6458 52.9156 52.6972 51.9672C51.7486 51.0187 50.4624 50.4853 49.121 50.484H44.321C42.9796 50.4853 41.6935 51.0187 40.7449 51.9672C39.7962 52.9156 39.2626 54.2016 39.261 55.543V59.365C39.261 59.6213 39.1592 59.8672 38.9779 60.0485C38.7967 60.2297 38.5509 60.3315 38.2945 60.3315C38.0382 60.3315 37.7924 60.2297 37.6111 60.0485C37.4299 59.8672 37.328 59.6213 37.328 59.365V55.543C37.3304 53.6894 38.0679 51.9125 39.3786 50.6019C40.6894 49.2913 42.4665 48.5541 44.32 48.552H49.12C50.9736 48.5541 52.7507 49.2913 54.0614 50.6019C55.3722 51.9125 56.1097 53.6894 56.112 55.543V59.365C56.112 59.621 56.0104 59.8666 55.8294 60.0477C55.6485 60.2289 55.403 60.3308 55.147 60.3311Z" fill="white"/>
<path d="M46.722 72.044C42.2732 72.0509 37.8936 70.9421 33.984 68.819C30.0744 66.6959 26.7596 63.6263 24.343 59.8911C24.2682 59.7848 24.2155 59.6645 24.1882 59.5374C24.1609 59.4103 24.1595 59.2791 24.1841 59.1514C24.2086 59.0238 24.2587 58.9023 24.3313 58.7945C24.4038 58.6866 24.4974 58.5946 24.6063 58.5237C24.7153 58.4529 24.8374 58.4046 24.9654 58.382C25.0934 58.3594 25.2246 58.3628 25.3512 58.392C25.4779 58.4213 25.5973 58.4757 25.7024 58.5522C25.8075 58.6286 25.8962 58.7255 25.963 58.837C28.0279 62.0185 30.7965 64.6827 34.055 66.624C37.3134 68.5652 40.9745 69.7314 44.7554 70.0325C48.5362 70.3337 52.3357 69.7617 55.8604 68.3608C59.385 66.9598 62.5405 64.7674 65.083 61.9529C65.2554 61.7628 65.4962 61.649 65.7526 61.6364C66.009 61.6238 66.2598 61.7137 66.45 61.886C66.6402 62.0584 66.7541 62.2992 66.7666 62.5556C66.7792 62.812 66.6894 63.0628 66.517 63.253C64.0135 66.0184 60.959 68.2292 57.5498 69.7432C54.1406 71.2572 50.4523 72.041 46.722 72.044Z" fill="white"/>
<path d="M68.704 59.6719C68.5326 59.6717 68.3643 59.6258 68.2164 59.5391C68.0685 59.4524 67.9464 59.3279 67.8624 59.1784C67.7785 59.0289 67.7357 58.8598 67.7387 58.6884C67.7416 58.517 67.79 58.3495 67.879 58.2029C69.8068 55.0219 70.9929 51.4473 71.3493 47.7448C71.7057 44.0423 71.2232 40.3071 69.9377 36.8167C68.6521 33.3263 66.5966 30.1705 63.9238 27.5837C61.251 24.9969 58.0296 23.0457 54.499 21.8749C54.2641 21.7879 54.0721 21.6131 53.9636 21.3873C53.855 21.1615 53.8383 20.9024 53.9169 20.6645C53.9956 20.4266 54.1636 20.2286 54.3854 20.1121C54.6072 19.9956 54.8655 19.9698 55.106 20.04C58.9127 21.302 62.3862 23.4057 65.2681 26.1946C68.15 28.9836 70.3663 32.3861 71.7524 36.1495C73.1385 39.9128 73.6586 43.9402 73.2742 47.9322C72.8898 51.9242 71.6108 55.7782 69.532 59.2079C69.4455 59.3499 69.3239 59.4671 69.1788 59.5484C69.0338 59.6297 68.8703 59.6722 68.704 59.6719Z" fill="white"/>
<path d="M22.843 55.879C22.6495 55.8795 22.4603 55.8219 22.2998 55.7137C22.1394 55.6055 22.0151 55.4517 21.943 55.272C20.3286 51.224 19.7301 46.8422 20.1996 42.5095C20.6691 38.1768 22.1925 34.025 24.6366 30.4168C27.0806 26.8086 30.3711 23.8537 34.2204 21.8104C38.0698 19.7671 42.361 18.6975 46.719 18.695C47.7502 18.695 48.7806 18.7541 49.805 18.872C49.9311 18.8865 50.0531 18.9257 50.164 18.9874C50.2749 19.049 50.3726 19.1319 50.4515 19.2313C50.5304 19.3307 50.5889 19.4447 50.6237 19.5667C50.6586 19.6887 50.6691 19.8164 50.6546 19.9424C50.6401 20.0685 50.6009 20.1905 50.5392 20.3015C50.4776 20.4124 50.3947 20.51 50.2953 20.5889C50.1958 20.6678 50.0818 20.7263 49.9598 20.7612C49.8378 20.796 49.7101 20.8064 49.5841 20.7919C48.633 20.6827 47.6764 20.628 46.719 20.628C42.6768 20.6305 38.6966 21.6228 35.1262 23.5181C31.5559 25.4134 28.5038 28.1541 26.2368 31.5008C23.9697 34.8475 22.5566 38.6984 22.1209 42.7171C21.6851 46.7358 22.24 50.8002 23.737 54.555C23.7955 54.7018 23.8172 54.8607 23.8001 55.0179C23.7829 55.175 23.7275 55.3256 23.6387 55.4564C23.5499 55.5871 23.4304 55.694 23.2906 55.7679C23.1509 55.8417 22.9951 55.8802 22.8371 55.8799L22.843 55.879Z" fill="white"/>
<path d="M25.158 67.74L23.23 67.608L23.91 57.708L33.427 59.108L33.147 61.02L25.695 59.927L25.158 67.74Z" fill="white"/>
<path d="M44.777 26.355L43.495 24.909L49.131 19.909L43.498 14.464L44.841 13.074L51.975 19.974L44.777 26.355Z" fill="white"/>
<path d="M67.813 60.4659L64.898 51.299L66.74 50.713L69.022 57.89L76.283 54.948L77.009 56.74L67.813 60.4659Z" fill="white"/>
</g>
<defs>
<radialGradient id="paint0_radial_6113_25270" cx="0" cy="0" r="1" gradientUnits="userSpaceOnUse" gradientTransform="translate(46.695 46.524) scale(46.524)">
<stop offset="0.009" stop-color="#FE1509"/>
<stop offset="0.992" stop-color="#C10202"/>
</radialGradient>
<clipPath id="clip0_6113_25270">
<rect width="93.049" height="93.048" fill="white" transform="translate(0.171021)"/>
</clipPath>
</defs>
</svg>
