<svg width="94" height="93" viewBox="0 0 94 93" fill="none" xmlns="http://www.w3.org/2000/svg">
<g clip-path="url(#clip0_6113_25268)">
<path d="M46.811 92.622C72.3879 92.622 93.122 71.8879 93.122 46.311C93.122 20.7341 72.3879 0 46.811 0C21.2341 0 0.5 20.7341 0.5 46.311C0.5 71.8879 21.2341 92.622 46.811 92.622Z" fill="url(#paint0_radial_6113_25268)"/>
<path d="M66.08 62.4H27.808C27.3415 62.4 26.8819 62.2881 26.4676 62.0737C26.0533 61.8593 25.6964 61.5487 25.427 61.168C22.6506 57.2266 21.0101 52.5983 20.6845 47.7882C20.359 42.978 21.361 38.1709 23.5811 33.8914C25.8012 29.6118 29.1541 26.0243 33.274 23.5204C37.3939 21.0164 42.1224 19.6921 46.9435 19.6921C51.7646 19.6921 56.4931 21.0164 60.613 23.5204C64.7329 26.0243 68.0858 29.6118 70.3059 33.8914C72.526 38.1709 73.528 42.978 73.2024 47.7882C72.8769 52.5983 71.2364 57.2266 68.46 61.168C68.1907 61.5487 67.834 61.8592 67.4199 62.0736C67.0058 62.288 66.5463 62.3999 66.08 62.4ZM46.945 21.648C42.4827 21.6483 38.1062 22.8743 34.2931 25.192C30.4799 27.5097 27.3766 30.8303 25.3217 34.7913C23.2668 38.7523 22.3393 43.2015 22.6404 47.6537C22.9415 52.1058 24.4595 56.3897 27.029 60.038C27.1176 60.1621 27.2347 60.2632 27.3704 60.3328C27.5061 60.4023 27.6565 60.4384 27.809 60.438H66.081C66.2333 60.4384 66.3836 60.4022 66.5191 60.3326C66.6546 60.2631 66.7715 60.162 66.86 60.038C69.4297 56.3898 70.948 52.1059 71.2492 47.6537C71.5505 43.2015 70.6231 38.7521 68.5683 34.7909C66.5135 30.8298 63.4102 27.5091 59.5971 25.1913C55.7839 22.8734 51.4074 21.6484 46.945 21.648Z" fill="white"/>
<path d="M46.944 27.152C46.6841 27.152 46.4348 27.0487 46.251 26.865C46.0672 26.6812 45.964 26.4319 45.964 26.172V20.672C45.964 20.4121 46.0672 20.1628 46.251 19.979C46.4348 19.7952 46.6841 19.692 46.944 19.692C47.2039 19.692 47.4532 19.7952 47.637 19.979C47.8207 20.1628 47.924 20.4121 47.924 20.672V26.172C47.924 26.4319 47.8207 26.6812 47.637 26.865C47.4532 27.0487 47.2039 27.152 46.944 27.152Z" fill="white"/>
<path d="M27.109 47.828H21.609C21.3491 47.828 21.0998 47.7247 20.916 47.5409C20.7322 47.3572 20.629 47.1079 20.629 46.848C20.629 46.5881 20.7322 46.3388 20.916 46.155C21.0998 45.9712 21.3491 45.868 21.609 45.868H27.109C27.3689 45.868 27.6182 45.9712 27.802 46.155C27.9857 46.3388 28.089 46.5881 28.089 46.848C28.089 47.1079 27.9857 47.3572 27.802 47.5409C27.6182 47.7247 27.3689 47.828 27.109 47.828Z" fill="white"/>
<path d="M27.873 41.538C27.781 41.5381 27.6894 41.5254 27.601 41.5L22.311 39.988C22.0612 39.9166 21.85 39.7489 21.7238 39.5218C21.5976 39.2947 21.5667 39.0268 21.638 38.777C21.7094 38.5272 21.8771 38.316 22.1042 38.1898C22.3312 38.0636 22.5991 38.0327 22.849 38.104L28.141 39.616C28.3908 39.6874 28.602 39.8551 28.7282 40.0822C28.8544 40.3093 28.8852 40.5772 28.814 40.827C28.7556 41.0316 28.6322 41.2116 28.4624 41.3399C28.2926 41.4682 28.0858 41.5377 27.873 41.538Z" fill="white"/>
<path d="M40.402 28.262C40.1989 28.2621 40.0009 28.1991 39.8352 28.0818C39.6695 27.9644 39.5443 27.7985 39.477 27.607L37.662 22.407C37.5763 22.1619 37.5913 21.8929 37.7038 21.6589C37.8163 21.4249 38.0171 21.2451 38.262 21.159C38.5071 21.0733 38.7761 21.0883 39.0101 21.2008C39.2441 21.3133 39.4239 21.5141 39.51 21.759L41.325 26.959C41.4107 27.2041 41.3956 27.4731 41.2831 27.7071C41.1706 27.9411 40.9699 28.1209 40.725 28.207C40.6212 28.2434 40.512 28.262 40.402 28.262Z" fill="white"/>
<path d="M34.638 31.435C34.4891 31.4355 34.3421 31.4019 34.2081 31.3369C34.0741 31.2719 33.9568 31.1772 33.865 31.06L30.449 26.748C30.2879 26.5443 30.2142 26.2849 30.2442 26.0269C30.2742 25.7689 30.4054 25.5333 30.609 25.372C30.8127 25.2109 31.0721 25.1372 31.3301 25.1672C31.5881 25.1972 31.8237 25.3284 31.985 25.532L35.402 29.847C35.516 29.9911 35.5872 30.1644 35.6074 30.347C35.6277 30.5296 35.5962 30.7143 35.5165 30.8799C35.4369 31.0455 35.3122 31.1853 35.1569 31.2835C35.0016 31.3816 34.8217 31.4341 34.638 31.435Z" fill="white"/>
<path d="M30.294 36.208C30.1052 36.2082 29.9204 36.1537 29.762 36.051L25.141 33.058C24.9229 32.9167 24.7698 32.6946 24.7154 32.4405C24.661 32.1864 24.7098 31.9211 24.851 31.703C24.9922 31.4849 25.2143 31.3318 25.4684 31.2774C25.7225 31.223 25.9878 31.2718 26.206 31.413L30.826 34.406C31.0032 34.521 31.1384 34.6901 31.2116 34.8883C31.2849 35.0864 31.2921 35.3029 31.2323 35.5055C31.1725 35.708 31.0488 35.8859 30.8798 36.0125C30.7107 36.1391 30.5052 36.2076 30.294 36.208Z" fill="white"/>
<path d="M72.081 47.828H66.581C66.3211 47.828 66.0718 47.7247 65.888 47.5409C65.7042 47.3572 65.601 47.1079 65.601 46.848C65.601 46.5881 65.7042 46.3388 65.888 46.155C66.0718 45.9712 66.3211 45.868 66.581 45.868H72.081C72.3409 45.868 72.5902 45.9712 72.7739 46.155C72.9577 46.3388 73.061 46.5881 73.061 46.848C73.061 47.1079 72.9577 47.3572 72.7739 47.5409C72.5902 47.7247 72.3409 47.828 72.081 47.828Z" fill="white"/>
<path d="M65.814 41.538C65.601 41.5379 65.3939 41.4685 65.224 41.3402C65.054 41.2119 64.9304 41.0317 64.872 40.827C64.8007 40.5772 64.8316 40.3093 64.9578 40.0822C65.084 39.8551 65.2952 39.6874 65.545 39.616L70.835 38.104C71.0848 38.0327 71.3527 38.0636 71.5798 38.1898C71.8069 38.316 71.9746 38.5272 72.046 38.777C72.1173 39.0265 72.0867 39.2942 71.9609 39.5212C71.8351 39.7483 71.6244 39.9161 71.375 39.988L66.083 41.5C65.9955 41.5251 65.905 41.5379 65.814 41.538Z" fill="white"/>
<path d="M53.283 28.262C53.173 28.262 53.0638 28.2434 52.96 28.207C52.7151 28.1209 52.5143 27.9411 52.4018 27.7071C52.2893 27.4731 52.2743 27.2041 52.36 26.959L54.175 21.759C54.2611 21.5141 54.4409 21.3133 54.6749 21.2008C54.9089 21.0883 55.1779 21.0733 55.423 21.159C55.6679 21.2451 55.8686 21.4249 55.9811 21.6589C56.0936 21.8929 56.1087 22.1619 56.023 22.407L54.204 27.607C54.1369 27.7979 54.0123 27.9634 53.8474 28.0806C53.6825 28.1979 53.4853 28.2613 53.283 28.262Z" fill="white"/>
<path d="M59.051 31.435C58.8305 31.4349 58.6166 31.3602 58.444 31.223C58.2404 31.0617 58.1092 30.8261 58.0792 30.5681C58.0492 30.3101 58.1229 30.0507 58.284 29.847L61.699 25.532C61.8601 25.3291 62.095 25.1983 62.3523 25.1681C62.6095 25.138 62.8683 25.2109 63.072 25.371C63.2756 25.5323 63.4068 25.7679 63.4368 26.0259C63.4668 26.2839 63.3931 26.5432 63.232 26.747L59.82 31.06C59.7286 31.1767 59.6119 31.2711 59.4787 31.336C59.3454 31.401 59.1992 31.4348 59.051 31.435Z" fill="white"/>
<path d="M63.393 36.208C63.2291 36.2079 63.0679 36.1666 62.9241 36.088C62.7803 36.0094 62.6585 35.8959 62.57 35.758C62.4288 35.5398 62.38 35.2745 62.4344 35.0204C62.4888 34.7664 62.6419 34.5443 62.86 34.403L67.48 31.412C67.6981 31.2708 67.9634 31.2221 68.2175 31.2764C68.4716 31.3308 68.6937 31.4839 68.835 31.702C68.905 31.8101 68.9531 31.9309 68.9765 32.0575C68.9998 32.1842 68.998 32.3142 68.971 32.4401C68.9441 32.566 68.8926 32.6854 68.8195 32.7915C68.7464 32.8975 68.6531 32.988 68.545 33.058L63.925 36.049C63.7668 36.1524 63.582 36.2077 63.393 36.208Z" fill="white"/>
<path d="M39.391 52.351H54.231C54.704 52.3515 55.1574 52.5396 55.4919 52.8741C55.8263 53.2085 56.0145 53.662 56.015 54.135V56.299C56.0145 56.772 55.8263 57.2254 55.4919 57.5599C55.1574 57.8943 54.704 58.0825 54.231 58.083H39.391C38.918 58.0825 38.4646 57.8943 38.1301 57.5599C37.7957 57.2254 37.6075 56.772 37.607 56.299V54.135C37.6075 53.662 37.7957 53.2085 38.1301 52.8741C38.4646 52.5396 38.918 52.3515 39.391 52.351ZM39.567 56.299L54.231 56.123L54.055 54.135L39.567 54.308V56.299Z" fill="white"/>
<path d="M46.742 50.231C46.517 50.23 46.2924 50.2126 46.07 50.179C45.2561 50.0484 44.4979 49.6833 43.8884 49.1284C43.2788 48.5734 42.8443 47.8528 42.6381 47.0547C42.4319 46.2566 42.4629 45.4156 42.7274 44.6349C42.9918 43.8542 43.4782 43.1675 44.127 42.659L44.185 42.614L44.405 42.465L54.232 36.896L54.663 36.849C54.8973 36.85 55.1273 36.9127 55.3297 37.0309C55.5321 37.149 55.6999 37.3184 55.816 37.522C55.9328 37.7239 55.9935 37.9534 55.9919 38.1867C55.9904 38.42 55.9265 38.6486 55.807 38.849L50.181 48.455L50.011 48.69C49.614 49.1726 49.1148 49.5612 48.5496 49.8277C47.9843 50.0941 47.3669 50.2319 46.742 50.231ZM52.927 39.888L45.371 44.17C45.0423 44.4203 44.7871 44.7546 44.6322 45.1377C44.4774 45.5208 44.4286 45.9385 44.491 46.347C44.5581 46.7814 44.7495 47.1871 45.042 47.5152C45.3345 47.8433 45.7157 48.0797 46.1397 48.196C46.5636 48.3123 47.012 48.3034 47.431 48.1705C47.85 48.0376 48.2216 47.7863 48.501 47.447L52.927 39.888Z" fill="white"/>
</g>
<defs>
<radialGradient id="paint0_radial_6113_25268" cx="0" cy="0" r="1" gradientUnits="userSpaceOnUse" gradientTransform="translate(46.811 46.311) scale(46.311)">
<stop offset="0.009" stop-color="#FE1509"/>
<stop offset="0.992" stop-color="#C10202"/>
</radialGradient>
<clipPath id="clip0_6113_25268">
<rect width="92.623" height="92.623" fill="white" transform="translate(0.5)"/>
</clipPath>
</defs>
</svg>
