<svg width="33" height="32" viewBox="0 0 33 32" fill="none" xmlns="http://www.w3.org/2000/svg">
<g clip-path="url(#clip0_6113_25214)">
<path d="M16.3334 32C25.1699 32 32.3334 24.8366 32.3334 16C32.3334 7.16344 25.1699 0 16.3334 0C7.49682 0 0.333374 7.16344 0.333374 16C0.333374 24.8366 7.49682 32 16.3334 32Z" fill="url(#paint0_radial_6113_25214)"/>
<path d="M16.3427 21.5541C15.1659 21.5541 14.0156 21.2052 13.0372 20.5515C12.0588 19.8977 11.2962 18.9685 10.8459 17.8813C10.3956 16.7942 10.2778 15.5979 10.5074 14.4438C10.7369 13.2897 11.3036 12.2296 12.1356 11.3975C12.9677 10.5654 14.0278 9.9988 15.1819 9.76923C16.3361 9.53966 17.5323 9.65749 18.6195 10.1078C19.7066 10.5581 20.6358 11.3207 21.2896 12.2991C21.9433 13.2775 22.2923 14.4278 22.2923 15.6045C22.2901 17.1818 21.6625 18.6939 20.5472 19.8092C19.432 20.9245 17.9199 21.552 16.3427 21.5541ZM16.3427 10.317C15.2971 10.317 14.2751 10.627 13.4058 11.2078C12.5365 11.7887 11.8589 12.6143 11.4588 13.5802C11.0587 14.5462 10.954 15.609 11.158 16.6345C11.362 17.6599 11.8654 18.6018 12.6047 19.3411C13.344 20.0804 14.2859 20.5838 15.3114 20.7878C16.3368 20.9918 17.3997 20.8871 18.3656 20.487C19.3315 20.0869 20.1571 19.4093 20.738 18.54C21.3188 17.6707 21.6289 16.6487 21.6289 15.6032C21.6273 14.2016 21.0699 12.858 20.0789 11.8669C19.0878 10.8759 17.7442 10.3185 16.3427 10.317Z" fill="white" stroke="white" stroke-width="0.125"/>
<path d="M16.4823 17.3615H16.2041C15.6906 17.3609 15.1984 17.1566 14.8353 16.7935C14.4723 16.4304 14.2681 15.9381 14.2675 15.4246V14.6883C14.2675 14.1378 14.4862 13.6098 14.8755 13.2205C15.2648 12.8312 15.7928 12.6125 16.3434 12.6125C16.8939 12.6125 17.4219 12.8312 17.8112 13.2205C18.2005 13.6098 18.4192 14.1378 18.4192 14.6883V15.4246C18.4186 15.9382 18.2144 16.4305 17.8513 16.7936C17.4882 17.1567 16.9958 17.361 16.4823 17.3615ZM16.3447 13.2769C15.971 13.2777 15.6128 13.4266 15.3486 13.6908C15.0843 13.9551 14.9355 14.3132 14.9347 14.6869V15.4232C14.9347 15.7607 15.0688 16.0844 15.3074 16.323C15.546 16.5617 15.8697 16.6957 16.2072 16.6957H16.4854C16.8229 16.6957 17.1465 16.5617 17.3852 16.323C17.6238 16.0844 17.7579 15.7607 17.7579 15.4232V14.6869C17.757 14.3124 17.6075 13.9535 17.3421 13.6891C17.0767 13.4248 16.7172 13.2766 16.3427 13.2773L16.3447 13.2769Z" fill="white" stroke="white" stroke-width="0.125"/>
<path d="M19.2401 20.7484C19.152 20.7484 19.0675 20.7134 19.0052 20.6511C18.9429 20.5888 18.9079 20.5042 18.9079 20.4161V19.1017C18.9073 18.6404 18.7238 18.1981 18.3976 17.872C18.0713 17.5458 17.629 17.3623 17.1677 17.3619H15.5169C15.0556 17.3623 14.6133 17.5458 14.2871 17.872C13.9608 18.1981 13.7773 18.6404 13.7768 19.1017V20.4161C13.7768 20.5043 13.7417 20.5888 13.6794 20.6512C13.6171 20.7135 13.5325 20.7485 13.4444 20.7485C13.3562 20.7485 13.2717 20.7135 13.2094 20.6512C13.147 20.5888 13.112 20.5043 13.112 20.4161V19.1017C13.1128 18.4642 13.3664 17.8532 13.8172 17.4024C14.268 16.9517 14.8792 16.6982 15.5166 16.6974H17.1674C17.8048 16.6982 18.416 16.9517 18.8668 17.4024C19.3175 17.8532 19.5712 18.4642 19.572 19.1017V20.4161C19.572 20.5042 19.537 20.5886 19.4748 20.6509C19.4126 20.7132 19.3281 20.7483 19.2401 20.7484Z" fill="white" stroke="white" stroke-width="0.125"/>
<path d="M16.3427 24.7766C14.8127 24.7789 13.3065 24.3976 11.9619 23.6675C10.6174 22.9373 9.47742 21.8816 8.64632 20.597C8.62058 20.5605 8.60248 20.5191 8.59309 20.4754C8.5837 20.4317 8.58321 20.3866 8.59166 20.3427C8.60011 20.2988 8.61734 20.257 8.64229 20.2199C8.66724 20.1828 8.6994 20.1512 8.73687 20.1268C8.77434 20.1024 8.81634 20.0859 8.86036 20.0781C8.90438 20.0703 8.94951 20.0715 8.99306 20.0815C9.03661 20.0916 9.07769 20.1103 9.11384 20.1366C9.14999 20.1629 9.18046 20.1962 9.20345 20.2345C9.91359 21.3287 10.8657 22.245 11.9863 22.9126C13.107 23.5802 14.366 23.9812 15.6663 24.0848C16.9666 24.1884 18.2733 23.9916 19.4854 23.5099C20.6976 23.0281 21.7828 22.2741 22.6571 21.3061C22.7164 21.2408 22.7993 21.2016 22.8874 21.1973C22.9756 21.193 23.0619 21.2239 23.1273 21.2831C23.1927 21.3424 23.2319 21.4252 23.2362 21.5134C23.2405 21.6016 23.2096 21.6878 23.1503 21.7532C22.2894 22.7043 21.2389 23.4646 20.0664 23.9853C18.894 24.506 17.6255 24.7755 16.3427 24.7766Z" fill="white" stroke="white" stroke-width="0.125"/>
<path d="M23.9025 20.5217C23.8435 20.5216 23.7856 20.5058 23.7348 20.476C23.6839 20.4462 23.6419 20.4034 23.613 20.352C23.5842 20.3006 23.5695 20.2424 23.5705 20.1835C23.5715 20.1245 23.5881 20.0669 23.6187 20.0165C24.2817 18.9225 24.6896 17.6932 24.8122 16.4199C24.9348 15.1465 24.7688 13.862 24.3267 12.6616C23.8846 11.4612 23.1777 10.3759 22.2585 9.48627C21.3393 8.59665 20.2314 7.92561 19.0172 7.52299C18.9364 7.49305 18.8704 7.43293 18.8331 7.35527C18.7957 7.27762 18.79 7.18851 18.8171 7.10671C18.8441 7.0249 18.9019 6.95681 18.9782 6.91674C19.0544 6.87668 19.1433 6.86778 19.226 6.89193C20.5352 7.32595 21.7297 8.04942 22.7208 9.00857C23.7119 9.96773 24.4741 11.1379 24.9508 12.4321C25.4275 13.7264 25.6064 15.1114 25.4742 16.4843C25.342 17.8572 24.9021 19.1826 24.1872 20.3621C24.1575 20.4109 24.1156 20.4513 24.0658 20.4792C24.0159 20.5072 23.9596 20.5218 23.9025 20.5217Z" fill="white" stroke="white" stroke-width="0.125"/>
<path d="M8.13047 19.2173C8.06391 19.2174 7.99883 19.1976 7.94365 19.1604C7.88847 19.1232 7.84572 19.0703 7.82094 19.0085C7.26574 17.6164 7.0599 16.1094 7.22137 14.6194C7.38284 13.1293 7.90673 11.7015 8.74727 10.4606C9.58781 9.21971 10.7194 8.20349 12.0432 7.50078C13.3671 6.79807 14.8428 6.43024 16.3416 6.42938C16.6963 6.42938 17.0506 6.4497 17.4029 6.49025C17.4463 6.49525 17.4882 6.50872 17.5264 6.52993C17.5645 6.55113 17.5981 6.57962 17.6253 6.6138C17.6524 6.64799 17.6725 6.6872 17.6845 6.72917C17.6965 6.77113 17.7001 6.81503 17.6951 6.85839C17.6901 6.90174 17.6766 6.94371 17.6554 6.98185C17.6342 7.02 17.6057 7.05359 17.5715 7.08072C17.5373 7.10785 17.4981 7.12797 17.4562 7.13995C17.4142 7.15193 17.3703 7.15552 17.3269 7.15053C16.9998 7.11297 16.6709 7.09416 16.3416 7.09415C14.9514 7.09503 13.5827 7.43628 12.3548 8.08809C11.1269 8.73991 10.0773 9.68244 9.2976 10.8334C8.51795 11.9844 8.03196 13.3087 7.88211 14.6908C7.73225 16.0729 7.92307 17.4706 8.43792 18.7619C8.45804 18.8124 8.4655 18.8671 8.4596 18.9211C8.4537 18.9752 8.43464 19.027 8.4041 19.0719C8.37356 19.1169 8.33245 19.1537 8.28439 19.1791C8.23633 19.2045 8.18277 19.2177 8.12841 19.2176L8.13047 19.2173Z" fill="white" stroke="white" stroke-width="0.125"/>
<path d="M8.92663 23.2963L8.26358 23.251L8.49744 19.8463L11.7704 20.3277L11.6741 20.9853L9.1113 20.6094L8.92663 23.2963Z" fill="white" stroke="white" stroke-width="0.125"/>
<path d="M15.6738 9.06373L15.2329 8.56642L17.1711 6.84688L15.2339 4.97431L15.6958 4.49628L18.1492 6.86925L15.6738 9.06373Z" fill="white" stroke="white" stroke-width="0.125"/>
<path d="M23.596 20.7948L22.5935 17.6422L23.227 17.4407L24.0118 19.9089L26.5089 18.8971L26.7586 19.5134L23.596 20.7948Z" fill="white" stroke="white" stroke-width="0.125"/>
</g>
<defs>
<radialGradient id="paint0_radial_6113_25214" cx="0" cy="0" r="1" gradientUnits="userSpaceOnUse" gradientTransform="translate(16.3334 16) scale(16)">
<stop offset="0.009" stop-color="#FE1509"/>
<stop offset="0.992" stop-color="#C10202"/>
</radialGradient>
<clipPath id="clip0_6113_25214">
<rect width="32.0003" height="32" fill="white" transform="translate(0.333374)"/>
</clipPath>
</defs>
</svg>
