<svg width="32" height="32" viewBox="0 0 32 32" fill="none" xmlns="http://www.w3.org/2000/svg">
<g clip-path="url(#clip0_6113_25212)">
<path d="M15.9998 31.9997C24.8363 31.9997 31.9997 24.8363 31.9997 15.9998C31.9997 7.16337 24.8363 0 15.9998 0C7.16337 0 0 7.16337 0 15.9998C0 24.8363 7.16337 31.9997 15.9998 31.9997Z" fill="url(#paint0_radial_6113_25212)"/>
<path d="M22.657 21.5585H9.43455C9.27339 21.5585 9.11459 21.5199 8.97145 21.4458C8.82832 21.3717 8.70504 21.2644 8.61195 21.1329C7.65272 19.7712 7.08596 18.1722 6.9735 16.5103C6.86104 14.8485 7.2072 13.1877 7.97422 11.7092C8.74123 10.2307 9.89962 8.99122 11.323 8.12613C12.7463 7.26104 14.38 6.80353 16.0456 6.80353C17.7112 6.80353 19.3449 7.26104 20.7682 8.12613C22.1916 8.99122 23.35 10.2307 24.117 11.7092C24.884 13.1877 25.2302 14.8485 25.1177 16.5103C25.0053 18.1722 24.4385 19.7712 23.4793 21.1329C23.3862 21.2644 23.263 21.3717 23.1199 21.4458C22.9769 21.5198 22.8181 21.5585 22.657 21.5585ZM16.0461 7.47924C14.5045 7.47936 12.9924 7.90291 11.6751 8.70366C10.3577 9.50441 9.28551 10.6516 8.57558 12.0201C7.86564 13.3885 7.5452 14.9257 7.64921 16.4639C7.75323 18.002 8.27771 19.482 9.16542 20.7425C9.19604 20.7854 9.23648 20.8203 9.28336 20.8443C9.33025 20.8684 9.38221 20.8808 9.4349 20.8807H22.6574C22.71 20.8808 22.7619 20.8683 22.8087 20.8443C22.8555 20.8202 22.8959 20.7853 22.9265 20.7425C23.8143 19.4821 24.3388 18.002 24.4429 16.4639C24.547 14.9257 24.2266 13.3885 23.5167 12.02C22.8068 10.6514 21.7346 9.5042 20.4172 8.70341C19.0998 7.90261 17.5878 7.47938 16.0461 7.47924Z" fill="white" stroke="white" stroke-width="0.125"/>
<path d="M16.0458 9.38067C15.956 9.38067 15.8699 9.345 15.8064 9.28151C15.7429 9.21801 15.7072 9.13189 15.7072 9.0421V7.14192C15.7072 7.05213 15.7429 6.96601 15.8064 6.90251C15.8699 6.83902 15.956 6.80334 16.0458 6.80334C16.1356 6.80334 16.2217 6.83902 16.2852 6.90251C16.3487 6.96601 16.3844 7.05213 16.3844 7.14192V9.0421C16.3844 9.13189 16.3487 9.21801 16.2852 9.28151C16.2217 9.345 16.1356 9.38067 16.0458 9.38067Z" fill="white" stroke="white" stroke-width="0.125"/>
<path d="M9.19305 16.524H7.29288C7.20308 16.524 7.11696 16.4883 7.05347 16.4248C6.98997 16.3613 6.9543 16.2752 6.9543 16.1854C6.9543 16.0956 6.98997 16.0095 7.05347 15.946C7.11696 15.8825 7.20308 15.8468 7.29288 15.8468H9.19305C9.28285 15.8468 9.36897 15.8825 9.43246 15.946C9.49596 16.0095 9.53163 16.0956 9.53163 16.1854C9.53163 16.2752 9.49596 16.3613 9.43246 16.4248C9.36897 16.4883 9.28285 16.524 9.19305 16.524Z" fill="white" stroke="white" stroke-width="0.125"/>
<path d="M9.457 14.3508C9.42522 14.3509 9.39358 14.3464 9.36303 14.3377L7.5354 13.8153C7.44911 13.7906 7.37614 13.7327 7.33254 13.6542C7.28894 13.5758 7.27828 13.4832 7.30289 13.3969C7.32757 13.3106 7.3855 13.2377 7.46395 13.1941C7.54241 13.1505 7.63496 13.1398 7.72128 13.1644L9.54959 13.6868C9.63589 13.7115 9.70885 13.7694 9.75245 13.8478C9.79605 13.9263 9.80672 14.0189 9.7821 14.1052C9.76193 14.1759 9.71929 14.2381 9.66064 14.2824C9.60199 14.3267 9.53051 14.3507 9.457 14.3508Z" fill="white" stroke="white" stroke-width="0.125"/>
<path d="M13.7856 9.76417C13.7155 9.7642 13.647 9.74244 13.5898 9.70191C13.5325 9.66137 13.4893 9.60405 13.466 9.53787L12.839 7.74134C12.8094 7.65667 12.8146 7.56372 12.8534 7.48288C12.8923 7.40204 12.9616 7.33993 13.0463 7.31018C13.1309 7.28057 13.2239 7.28577 13.3047 7.32463C13.3856 7.3635 13.4477 7.43285 13.4774 7.51747L14.1045 9.314C14.1341 9.39867 14.1289 9.49162 14.09 9.57246C14.0512 9.6533 13.9818 9.71541 13.8972 9.74517C13.8613 9.75773 13.8236 9.76415 13.7856 9.76417Z" fill="white" stroke="white" stroke-width="0.125"/>
<path d="M11.7942 10.8604C11.7428 10.8606 11.692 10.849 11.6457 10.8265C11.5994 10.8041 11.5589 10.7713 11.5272 10.7308L10.347 9.2411C10.2913 9.17071 10.2659 9.0811 10.2762 8.99196C10.2866 8.90282 10.3319 8.82144 10.4023 8.76571C10.4726 8.71004 10.5622 8.68459 10.6514 8.69496C10.7405 8.70532 10.8219 8.75065 10.8776 8.82098L12.0582 10.3118C12.0976 10.3615 12.1222 10.4214 12.1291 10.4845C12.1361 10.5476 12.1253 10.6114 12.0977 10.6686C12.0702 10.7258 12.0272 10.7741 11.9735 10.808C11.9198 10.842 11.8577 10.8601 11.7942 10.8604Z" fill="white" stroke="white" stroke-width="0.125"/>
<path d="M10.2934 12.5094C10.2282 12.5095 10.1644 12.4907 10.1096 12.4552L8.51314 11.4211C8.43778 11.3723 8.3849 11.2956 8.36611 11.2078C8.34732 11.12 8.36417 11.0284 8.41295 10.953C8.46175 10.8776 8.53848 10.8247 8.62627 10.806C8.71405 10.7872 8.80571 10.804 8.88108 10.8528L10.4772 11.8868C10.5384 11.9266 10.5852 11.985 10.6105 12.0535C10.6358 12.1219 10.6383 12.1967 10.6176 12.2667C10.5969 12.3367 10.5542 12.3981 10.4958 12.4419C10.4374 12.4856 10.3664 12.5093 10.2934 12.5094Z" fill="white" stroke="white" stroke-width="0.125"/>
<path d="M24.7303 16.524H22.8301C22.7403 16.524 22.6542 16.4883 22.5907 16.4248C22.5272 16.3613 22.4915 16.2752 22.4915 16.1854C22.4915 16.0956 22.5272 16.0095 22.5907 15.946C22.6542 15.8825 22.7403 15.8468 22.8301 15.8468H24.7303C24.8201 15.8468 24.9062 15.8825 24.9697 15.946C25.0332 16.0095 25.0688 16.0956 25.0688 16.1854C25.0688 16.2752 25.0332 16.3613 24.9697 16.4248C24.9062 16.4883 24.8201 16.524 24.7303 16.524Z" fill="white" stroke="white" stroke-width="0.125"/>
<path d="M22.5651 14.3508C22.4915 14.3508 22.42 14.3268 22.3613 14.2825C22.3025 14.2382 22.2599 14.1759 22.2397 14.1052C22.215 14.0189 22.2257 13.9263 22.2693 13.8478C22.3129 13.7694 22.3859 13.7115 22.4722 13.6868L24.2998 13.1644C24.3861 13.1398 24.4787 13.1505 24.5571 13.1941C24.6356 13.2377 24.6935 13.3106 24.7182 13.3969C24.7428 13.4831 24.7323 13.5756 24.6888 13.6541C24.6453 13.7325 24.5725 13.7905 24.4864 13.8153L22.658 14.3377C22.6278 14.3463 22.5965 14.3508 22.5651 14.3508Z" fill="white" stroke="white" stroke-width="0.125"/>
<path d="M18.2358 9.76417C18.1978 9.76415 18.1601 9.75773 18.1242 9.74517C18.0396 9.71541 17.9703 9.6533 17.9314 9.57246C17.8925 9.49162 17.8873 9.39867 17.9169 9.314L18.544 7.51747C18.5737 7.43285 18.6359 7.3635 18.7167 7.32463C18.7975 7.28577 18.8905 7.28057 18.9752 7.31018C19.0598 7.33993 19.1291 7.40204 19.168 7.48288C19.2069 7.56372 19.2121 7.65667 19.1825 7.74134L18.554 9.53787C18.5308 9.60383 18.4878 9.66099 18.4308 9.70151C18.3738 9.74203 18.3057 9.76391 18.2358 9.76417Z" fill="white" stroke="white" stroke-width="0.125"/>
<path d="M20.2286 10.8603C20.1524 10.8603 20.0785 10.8345 20.0189 10.7871C19.9485 10.7314 19.9032 10.65 19.8928 10.5608C19.8825 10.4717 19.9079 10.3821 19.9636 10.3117L21.1434 8.82094C21.1991 8.75085 21.2802 8.70566 21.3691 8.69524C21.458 8.68481 21.5474 8.71001 21.6178 8.76531C21.6881 8.82105 21.7335 8.90243 21.7438 8.99157C21.7542 9.08071 21.7287 9.17032 21.6731 9.2407L20.4943 10.7308C20.4627 10.7711 20.4224 10.8037 20.3763 10.8262C20.3303 10.8486 20.2798 10.8603 20.2286 10.8603Z" fill="white" stroke="white" stroke-width="0.125"/>
<path d="M21.7287 12.5094C21.6721 12.5093 21.6164 12.4951 21.5667 12.4679C21.517 12.4408 21.4749 12.4016 21.4443 12.3539C21.3956 12.2785 21.3787 12.1869 21.3975 12.0991C21.4163 12.0113 21.4692 11.9346 21.5445 11.8858L23.1407 10.8524C23.2161 10.8037 23.3077 10.7868 23.3955 10.8056C23.4833 10.8244 23.56 10.8773 23.6088 10.9526C23.633 10.99 23.6496 11.0317 23.6577 11.0754C23.6658 11.1192 23.6651 11.1641 23.6558 11.2076C23.6465 11.2511 23.6287 11.2924 23.6035 11.329C23.5782 11.3656 23.546 11.3969 23.5086 11.4211L21.9125 12.4545C21.8578 12.4902 21.794 12.5093 21.7287 12.5094Z" fill="white" stroke="white" stroke-width="0.125"/>
<path d="M13.4363 18.0865H18.5633C18.7267 18.0867 18.8834 18.1517 18.999 18.2673C19.1145 18.3828 19.1795 18.5395 19.1797 18.7029V19.4505C19.1795 19.6139 19.1145 19.7706 18.999 19.8862C18.8834 20.0017 18.7267 20.0667 18.5633 20.0669H13.4363C13.2729 20.0667 13.1162 20.0017 13.0007 19.8862C12.8851 19.7706 12.8202 19.6139 12.82 19.4505V18.7029C12.8202 18.5395 12.8851 18.3828 13.0007 18.2673C13.1162 18.1517 13.2729 18.0867 13.4363 18.0865ZM13.4971 19.4505L18.5633 19.3897L18.5025 18.7029L13.4971 18.7627V19.4505Z" fill="white" stroke="white" stroke-width="0.125"/>
<path d="M15.976 17.3541C15.8983 17.3538 15.8207 17.3478 15.7438 17.3362C15.4626 17.2911 15.2007 17.1649 14.9901 16.9732C14.7795 16.7815 14.6294 16.5325 14.5582 16.2568C14.4869 15.981 14.4976 15.6905 14.589 15.4208C14.6803 15.151 14.8484 14.9138 15.0725 14.7381L15.0926 14.7226L15.1686 14.6711L18.5637 12.7471L18.7126 12.7308C18.7936 12.7312 18.873 12.7529 18.9429 12.7937C19.0129 12.8345 19.0708 12.893 19.1109 12.9633C19.1513 13.0331 19.1723 13.1124 19.1717 13.193C19.1712 13.2736 19.1491 13.3526 19.1078 13.4218L17.1641 16.7406L17.1054 16.8217C16.9682 16.9885 16.7958 17.1227 16.6005 17.2148C16.4052 17.3069 16.1919 17.3544 15.976 17.3541ZM18.1128 13.7808L15.5023 15.2601C15.3888 15.3466 15.3006 15.4621 15.2471 15.5945C15.1936 15.7268 15.1767 15.8712 15.1983 16.0123C15.2215 16.1623 15.2876 16.3025 15.3887 16.4159C15.4897 16.5292 15.6214 16.6109 15.7679 16.6511C15.9143 16.6913 16.0693 16.6882 16.214 16.6423C16.3588 16.5964 16.4872 16.5095 16.5837 16.3923L18.1128 13.7808Z" fill="white" stroke="white" stroke-width="0.125"/>
</g>
<defs>
<radialGradient id="paint0_radial_6113_25212" cx="0" cy="0" r="1" gradientUnits="userSpaceOnUse" gradientTransform="translate(15.9998 15.9998) scale(15.9998)">
<stop offset="0.009" stop-color="#FE1509"/>
<stop offset="0.992" stop-color="#C10202"/>
</radialGradient>
<clipPath id="clip0_6113_25212">
<rect width="32" height="32" fill="white"/>
</clipPath>
</defs>
</svg>
