<svg width="33" height="32" viewBox="0 0 33 32" fill="none" xmlns="http://www.w3.org/2000/svg">
<g clip-path="url(#clip0_6113_25213)">
<path d="M16.6667 32C25.5033 32 32.6667 24.8366 32.6667 16C32.6667 7.16344 25.5033 0 16.6667 0C7.83019 0 0.666748 7.16344 0.666748 16C0.666748 24.8366 7.83019 32 16.6667 32Z" fill="url(#paint0_radial_6113_25213)"/>
<path d="M14.5115 20.0908C9.26309 20.0908 7.30143 17.6879 7.03319 17.3213L6.91866 17.1583C6.72044 16.8536 6.61506 16.4979 6.61534 16.1344V12.228C6.60826 12.1384 6.60596 12.0485 6.60846 11.9587C6.64766 10.5597 7.89984 9.05027 10.6088 8.83223C13.2297 8.62141 15.6206 9.51386 17.0055 11.22C17.4956 11.8093 17.8427 12.504 18.0195 13.2498C18.1962 13.9956 18.198 14.7723 18.0245 15.5188C21.3847 14.887 24.6237 13.7272 27.6213 12.0825C27.6987 12.0394 27.786 12.0173 27.8746 12.0183C27.9632 12.0193 28.0501 12.0434 28.1265 12.0882C28.2029 12.1331 28.2663 12.1971 28.3104 12.274C28.3545 12.3508 28.3777 12.4379 28.3779 12.5265L28.3878 15.8156C28.3882 15.9062 28.3643 15.9952 28.3188 16.0735C28.2733 16.1518 28.2077 16.2165 28.1289 16.261C26.0705 17.3827 23.8945 18.2733 21.6404 18.9167C19.3331 19.6499 16.932 20.0453 14.5115 20.0908ZM7.29215 13.8722V16.1358C7.29143 16.3647 7.35675 16.589 7.48027 16.7817L7.58344 16.9278C7.91669 17.3832 11.1701 21.3333 21.4454 18.2691C23.6191 17.6481 25.7192 16.7936 27.709 15.7204L27.7 12.8116C26.2701 13.5823 22.3275 15.5305 17.8574 16.2331L17.6101 16.2706C15.9504 16.5304 14.2624 16.5561 12.5956 16.347C9.88694 15.9766 8.16293 14.9964 7.29215 13.8732V13.8722ZM7.29215 12.2046C7.41974 13.6167 9.0932 15.1832 12.687 15.676C14.219 15.8688 15.77 15.8536 17.2978 15.6306C17.4987 14.9502 17.529 14.2308 17.3861 13.5358C17.2433 12.8409 16.9316 12.1918 16.4786 11.6457C15.2354 10.1129 13.0612 9.31336 10.6628 9.50629C8.74035 9.66105 7.40633 10.5982 7.29249 11.8559L7.29215 12.2046Z" fill="white" stroke="white" stroke-width="0.125"/>
<path d="M17.7071 15.7159C17.6289 15.716 17.5532 15.6888 17.4928 15.6392C12.1657 11.2733 7.97618 14.1401 7.93456 14.1693C7.89825 14.195 7.85724 14.2132 7.81388 14.2231C7.77052 14.2329 7.72565 14.234 7.68183 14.2265C7.63802 14.219 7.59612 14.2029 7.55852 14.1791C7.52093 14.1554 7.48837 14.1245 7.46272 14.0882C7.43707 14.0519 7.41882 14.0109 7.40902 13.9675C7.39921 13.9241 7.39804 13.8793 7.40558 13.8355C7.41312 13.7916 7.42921 13.7497 7.45294 13.7121C7.47667 13.6745 7.50757 13.642 7.54388 13.6163C7.58962 13.584 12.2007 10.4266 17.922 15.1154C17.9761 15.1596 18.0152 15.2195 18.0339 15.2868C18.0527 15.3541 18.0501 15.4256 18.0266 15.4914C18.0031 15.5572 17.9598 15.6141 17.9026 15.6543C17.8455 15.6945 17.7773 15.716 17.7074 15.7159H17.7071Z" fill="white" stroke="white" stroke-width="0.125"/>
<path d="M8.78883 18.7375C8.74436 18.7375 8.70033 18.7288 8.65925 18.7117C8.61817 18.6947 8.58085 18.6697 8.54942 18.6383C8.51799 18.6068 8.49307 18.5695 8.47609 18.5284C8.4591 18.4873 8.45038 18.4432 8.45042 18.3988V16.2727C8.45042 16.183 8.48608 16.0969 8.54954 16.0334C8.613 15.97 8.69908 15.9343 8.78883 15.9343C8.87858 15.9343 8.96466 15.97 9.02812 16.0334C9.09158 16.0969 9.12724 16.183 9.12724 16.2727V18.3988C9.12728 18.4432 9.11856 18.4873 9.10158 18.5284C9.08459 18.5695 9.05967 18.6068 9.02824 18.6383C8.99681 18.6697 8.95949 18.6947 8.91841 18.7117C8.87733 18.7288 8.8333 18.7375 8.78883 18.7375Z" fill="white" stroke="white" stroke-width="0.125"/>
<path d="M13.0182 20.0316C12.9737 20.0316 12.9297 20.0228 12.8886 20.0058C12.8475 19.9887 12.8101 19.9637 12.7787 19.9322C12.7473 19.9007 12.7224 19.8634 12.7054 19.8222C12.6884 19.7811 12.6797 19.737 12.6798 19.6925V17.5548C12.6798 17.465 12.7155 17.3789 12.7789 17.3155C12.8424 17.252 12.9285 17.2164 13.0182 17.2164C13.108 17.2164 13.1941 17.252 13.2575 17.3155C13.321 17.3789 13.3566 17.465 13.3566 17.5548V19.6925C13.3567 19.737 13.348 19.7811 13.3311 19.8222C13.3141 19.8634 13.2892 19.9007 13.2578 19.9322C13.2263 19.9637 13.189 19.9887 13.1479 20.0058C13.1068 20.0228 13.0627 20.0316 13.0182 20.0316Z" fill="white" stroke="white" stroke-width="0.125"/>
<path d="M17.4209 19.8697C17.3312 19.8697 17.2451 19.834 17.1817 19.7705C17.1182 19.7071 17.0825 19.621 17.0825 19.5313V17.4406C17.0825 17.3509 17.1182 17.2648 17.1817 17.2014C17.2451 17.1379 17.3312 17.1022 17.4209 17.1022C17.5107 17.1022 17.5968 17.1379 17.6602 17.2014C17.7237 17.2648 17.7593 17.3509 17.7593 17.4406V19.5313C17.7593 19.621 17.7237 19.7071 17.6602 19.7705C17.5968 19.834 17.5107 19.8697 17.4209 19.8697Z" fill="white" stroke="white" stroke-width="0.125"/>
<path d="M21.6393 18.9033C21.5496 18.9033 21.4636 18.8677 21.4002 18.8043C21.3367 18.7409 21.301 18.6549 21.3009 18.5652V16.4217C21.3009 16.3319 21.3366 16.2458 21.4 16.1824C21.4635 16.1189 21.5496 16.0833 21.6393 16.0833C21.7291 16.0833 21.8152 16.1189 21.8786 16.1824C21.9421 16.2458 21.9777 16.3319 21.9777 16.4217V18.5652C21.9776 18.6549 21.9419 18.7409 21.8785 18.8043C21.815 18.8677 21.729 18.9033 21.6393 18.9033Z" fill="white" stroke="white" stroke-width="0.125"/>
<path d="M25.3484 17.5799C25.2586 17.5799 25.1725 17.5443 25.1091 17.4808C25.0456 17.4174 25.01 17.3313 25.01 17.2415V15.1839C25.01 15.0942 25.0456 15.0081 25.1091 14.9446C25.1725 14.8812 25.2586 14.8455 25.3484 14.8455C25.4381 14.8455 25.5242 14.8812 25.5877 14.9446C25.6511 15.0081 25.6868 15.0942 25.6868 15.1839V17.2415C25.6868 17.3313 25.6511 17.4174 25.5877 17.4808C25.5242 17.5443 25.4381 17.5799 25.3484 17.5799Z" fill="white" stroke="white" stroke-width="0.125"/>
<path d="M12.88 25.7223C12.8045 25.7222 12.7301 25.7049 12.6623 25.6718C12.5787 25.6315 12.5082 25.5684 12.4591 25.4898C12.4099 25.4111 12.384 25.3202 12.3844 25.2274V22.0494C12.3842 21.9739 12.4013 21.8994 12.4346 21.8317C12.4678 21.7639 12.5162 21.7047 12.576 21.6587C13.3983 21.0237 14.1614 20.3155 14.8561 19.543C14.8842 19.5072 14.9193 19.4776 14.9591 19.4557C14.999 19.4338 15.0428 19.4202 15.0881 19.4157C15.1333 19.4111 15.179 19.4157 15.2224 19.4292C15.2658 19.4428 15.3061 19.4649 15.3408 19.4943C15.3754 19.5237 15.4038 19.5598 15.4243 19.6004C15.4447 19.641 15.4567 19.6853 15.4596 19.7307C15.4625 19.7761 15.4563 19.8216 15.4412 19.8645C15.4261 19.9074 15.4026 19.9468 15.3719 19.9804C14.6689 20.7688 13.8952 21.4913 13.0605 22.1388V24.8495C16.5959 21.9906 17.9471 19.2709 17.9609 19.2438C18.0001 19.163 18.0698 19.1011 18.1546 19.0717C18.2395 19.0424 18.3325 19.0479 18.4133 19.0871C18.4941 19.1263 18.5559 19.196 18.5853 19.2809C18.6147 19.3657 18.6092 19.4588 18.5699 19.5395C18.5104 19.6619 17.0719 22.5704 13.1843 25.6171C13.0975 25.6852 12.9903 25.7222 12.88 25.7223Z" fill="white" stroke="white" stroke-width="0.125"/>
<path d="M15.7509 23.144C15.6612 23.144 15.5751 23.1083 15.5116 23.0449C15.4482 22.9814 15.4125 22.8953 15.4125 22.8056V21.0173C15.4129 20.9278 15.4487 20.842 15.5121 20.7789C15.5755 20.7157 15.6614 20.6802 15.7509 20.6802C15.8407 20.6802 15.9268 20.7159 15.9902 20.7794C16.0537 20.8428 16.0893 20.9289 16.0893 21.0186V22.807C16.089 22.8965 16.0532 22.9822 15.9897 23.0454C15.9263 23.1085 15.8404 23.144 15.7509 23.144Z" fill="white" stroke="white" stroke-width="0.125"/>
</g>
<defs>
<radialGradient id="paint0_radial_6113_25213" cx="0" cy="0" r="1" gradientUnits="userSpaceOnUse" gradientTransform="translate(16.6667 16) scale(16)">
<stop offset="0.009" stop-color="#FE1509"/>
<stop offset="0.992" stop-color="#C10202"/>
</radialGradient>
<clipPath id="clip0_6113_25213">
<rect width="32" height="32" fill="white" transform="translate(0.666748)"/>
</clipPath>
</defs>
</svg>
