<svg width="93" height="93" viewBox="0 0 93 93" fill="none" xmlns="http://www.w3.org/2000/svg">
<g clip-path="url(#clip0_6113_25271)">
<path d="M46.531 92.622C72.1079 92.622 92.842 71.8879 92.842 46.311C92.842 20.7341 72.1079 0 46.531 0C20.9542 0 0.220032 20.7341 0.220032 46.311C0.220032 71.8879 20.9542 92.622 46.531 92.622Z" fill="url(#paint0_radial_6113_25271)"/>
<mask id="mask0_6113_25271" style="mask-type:luminance" maskUnits="userSpaceOnUse" x="19" y="18" width="55" height="56">
<path d="M73.892 18.956H19.168V73.666H73.892V18.956Z" fill="white"/>
</mask>
<g mask="url(#mask0_6113_25271)">
<path d="M54.517 55.986L52.075 53.523C49.7158 55.6279 46.8822 57.1305 43.8161 57.9025C40.7501 58.6744 37.5427 58.6928 34.468 57.956C29.6515 56.9141 25.4258 54.0468 22.678 49.956C20.5667 46.8994 19.3592 43.3098 19.1938 39.5986C19.0284 35.8873 19.9118 32.2046 21.7429 28.9722C23.574 25.7399 26.2786 23.0888 29.5468 21.3227C32.8151 19.5566 36.5148 18.7469 40.222 18.9864C43.9291 19.2259 47.4939 20.5049 50.5077 22.6769C53.5215 24.8489 55.8625 27.826 57.2625 31.267C58.6624 34.7081 59.0646 38.4739 58.4231 42.133C57.7815 45.7921 56.1221 49.1965 53.635 51.956L56.068 54.406C56.262 54.199 56.441 53.99 56.64 53.801C56.824 53.6138 57.0438 53.4657 57.2864 53.3653C57.5289 53.2649 57.7891 53.2145 58.0516 53.2169C58.314 53.2193 58.5733 53.2746 58.8139 53.3794C59.0545 53.4843 59.2715 53.6365 59.452 53.827C64.068 58.4403 68.6817 63.0557 73.293 67.673C73.4828 67.8544 73.634 68.0723 73.7375 68.3135C73.841 68.5548 73.8946 68.8145 73.8953 69.077C73.8959 69.3395 73.8436 69.5995 73.7413 69.8413C73.639 70.083 73.4889 70.3017 73.3 70.484C72.4407 71.358 71.574 72.2247 70.7 73.084C70.5182 73.2689 70.3012 73.4157 70.0619 73.5157C69.8225 73.6157 69.5657 73.6669 69.3063 73.6664C69.0469 73.6658 68.7902 73.6135 68.5513 73.5124C68.3124 73.4114 68.0961 73.2637 67.915 73.078C63.2837 68.458 58.6587 63.8357 54.04 59.211C53.8527 59.0313 53.7032 58.816 53.6003 58.5777C53.4974 58.3395 53.4431 58.083 53.4407 57.8235C53.4383 57.5639 53.4878 57.3065 53.5862 57.0664C53.6847 56.8262 53.8301 56.6082 54.014 56.425C54.1732 56.2703 54.3401 56.1238 54.514 55.986M56.546 38.693C56.5423 35.2239 55.5149 31.833 53.5925 28.9452C51.6701 26.0575 48.9383 23.8012 45.7392 22.4592C42.5402 21.1172 39.0163 20.7491 35.609 21.401C32.2016 22.0529 29.0625 23.6959 26.5848 26.124C24.1071 28.5521 22.4011 31.6575 21.6805 35.0509C20.9599 38.4444 21.2567 41.975 22.5338 45.2005C23.811 48.426 26.0116 51.2028 28.8599 53.1832C31.7083 55.1635 35.0777 56.2592 38.546 56.333C40.8931 56.3825 43.2264 55.9628 45.4091 55.0983C47.5917 54.2339 49.5797 52.9422 51.2564 51.2991C52.9331 49.6559 54.2646 47.6944 55.173 45.5297C56.0813 43.365 56.5482 41.0406 56.546 38.693ZM58.078 55.528L55.778 57.817L69.301 71.323L71.601 69.063L58.081 55.527" fill="white"/>
<path d="M34.471 39.775C33.6967 38.7733 33.3401 37.5108 33.476 36.252C33.4707 35.3184 33.5476 34.3861 33.706 33.466C34.031 32.2685 34.7569 31.2188 35.7626 30.4921C36.7684 29.7655 37.993 29.4059 39.2319 29.4734C40.4708 29.5409 41.6491 30.0315 42.5699 30.8632C43.4907 31.6949 44.0982 32.8173 44.291 34.043C44.5049 35.3862 44.4798 36.7566 44.217 38.091C44.0372 38.6652 43.8049 39.2215 43.523 39.753C44.1235 40.1324 44.7009 40.5471 45.252 40.995C45.8901 41.5564 46.4005 42.248 46.749 43.0231C47.0974 43.7983 47.2758 44.6391 47.272 45.489C47.288 46.594 47.277 47.7 47.272 48.805C47.2865 48.954 47.2697 49.1043 47.2224 49.2463C47.1752 49.3883 47.0988 49.5188 46.998 49.6294C46.8972 49.7401 46.7743 49.8283 46.6373 49.8885C46.5003 49.9486 46.3522 49.9794 46.2026 49.9788C46.0529 49.9781 45.9051 49.9461 45.7686 49.8848C45.6321 49.8235 45.5099 49.7342 45.4101 49.6227C45.3102 49.5113 45.2349 49.3801 45.1889 49.2377C45.1429 49.0953 45.1273 48.9448 45.143 48.796C45.143 47.751 45.143 46.705 45.143 45.66C45.1497 45.1095 45.0464 44.5632 44.8391 44.0532C44.6319 43.5431 44.3249 43.0796 43.9361 42.6898C43.5473 42.3 43.0846 41.9917 42.5751 41.7831C42.0656 41.5745 41.5196 41.4698 40.969 41.475C39.587 41.475 38.205 41.475 36.823 41.475C35.7417 41.4795 34.7059 41.911 33.9412 42.6755C33.1765 43.44 32.7448 44.4757 32.74 45.557C32.74 46.615 32.74 47.672 32.74 48.729C32.7728 48.994 32.7081 49.2619 32.558 49.4827C32.4078 49.7035 32.1825 49.8621 31.924 49.929C31.7794 49.973 31.6267 49.9842 31.4772 49.9619C31.3276 49.9397 31.1849 49.8844 31.0593 49.8002C30.9338 49.7159 30.8285 49.6049 30.7511 49.475C30.6738 49.345 30.6263 49.1996 30.612 49.049C30.5427 47.5026 30.5855 45.9532 30.74 44.413C30.8888 43.4194 31.2906 42.4807 31.9069 41.6873C32.5232 40.8938 33.3332 40.2721 34.259 39.882C34.323 39.851 34.387 39.818 34.475 39.774M35.59 35.874H35.645C35.645 36.306 35.623 36.739 35.645 37.174C35.6876 37.7417 35.9392 38.2733 36.3511 38.6662C36.763 39.0591 37.306 39.2853 37.875 39.301C38.559 39.311 39.243 39.309 39.927 39.301C40.4786 39.3098 41.0141 39.1153 41.4315 38.7545C41.8489 38.3938 42.1189 37.8921 42.19 37.345C42.2619 36.5087 42.2786 35.6685 42.24 34.83C42.2169 34.0053 41.887 33.2188 41.3148 32.6244C40.7426 32.03 39.9693 31.6705 39.146 31.616C38.3605 31.564 37.5824 31.7962 36.9538 32.2702C36.3252 32.7442 35.888 33.4284 35.722 34.198C35.6408 34.7542 35.5954 35.315 35.586 35.877" fill="white"/>
<path d="M37.229 25.185C37.2298 25.4569 37.1348 25.7203 36.9607 25.9292C36.7867 26.138 36.5446 26.2788 36.277 26.327C35.3189 26.5876 34.3789 26.9106 33.463 27.294C31.4451 28.2266 29.7231 29.697 28.486 31.544C28.425 31.633 28.367 31.724 28.304 31.812C28.2288 31.9321 28.1303 32.0359 28.0144 32.1173C27.8984 32.1988 27.7674 32.2562 27.6289 32.2862C27.4904 32.3162 27.3473 32.3182 27.2081 32.2921C27.0688 32.2659 26.9362 32.2122 26.818 32.134C26.6961 32.0606 26.5908 31.9626 26.5088 31.8463C26.4268 31.7301 26.3699 31.598 26.3417 31.4585C26.3135 31.319 26.3146 31.1752 26.345 31.0362C26.3753 30.8972 26.4343 30.766 26.518 30.651C27.0573 29.8722 27.6483 29.1306 28.287 28.431C30.2726 26.3346 32.8394 24.8797 35.658 24.253C36.473 24.064 37.025 24.334 37.194 25.009C37.211 25.078 37.219 25.15 37.224 25.181" fill="white"/>
<path d="M24.077 37.422C24.335 36.316 24.566 35.203 24.862 34.107C24.8991 33.9726 24.9633 33.8473 25.0507 33.7386C25.138 33.6299 25.2466 33.5402 25.3698 33.475C25.4931 33.4099 25.6283 33.3706 25.7673 33.3595C25.9063 33.3485 26.0461 33.3661 26.178 33.411C26.4437 33.4963 26.6665 33.6802 26.8006 33.9248C26.9348 34.1694 26.97 34.4562 26.899 34.726C26.69 35.697 26.487 36.668 26.299 37.643C26.2725 37.9251 26.135 38.185 25.9168 38.3657C25.6986 38.5464 25.4176 38.633 25.1355 38.6065C24.8535 38.58 24.5935 38.4425 24.4128 38.2243C24.2321 38.0061 24.1455 37.7251 24.172 37.443L24.072 37.421" fill="white"/>
</g>
</g>
<defs>
<radialGradient id="paint0_radial_6113_25271" cx="0" cy="0" r="1" gradientUnits="userSpaceOnUse" gradientTransform="translate(46.531 46.311) scale(46.311)">
<stop offset="0.009" stop-color="#FE1509"/>
<stop offset="0.992" stop-color="#C10202"/>
</radialGradient>
<clipPath id="clip0_6113_25271">
<rect width="92.623" height="92.623" fill="white" transform="translate(0.220032)"/>
</clipPath>
</defs>
</svg>
